<svg xmlns="http://www.w3.org/2000/svg" viewBox="0 0 734.98 331.2"><defs><style>.cls-1{fill:#fff;}</style></defs><title>LSBU Crest_simple black text_Horizon_WO_OUTLINE</title><g id="EST"><path class="cls-1" d="M182.9,330.37v-1.78c-3.93,0-7.61,0-9.21.09v0l3.32-3.89c3.74-4.35,5.07-6.74,5.07-9.67s-2-5.34-5.58-5.34a10.39,10.39,0,0,0-4.89,1.17l.27,1.72a8.58,8.58,0,0,1,4.16-1.29,3.7,3.7,0,0,1,4,4c0,2.48-.93,4.5-4.29,8.4l-4.34,5.08v1.53Zm-18.09-13.74a4.59,4.59,0,0,1-4.77,4.5c-2.69,0-4.45-1.81-4.45-4.92a4.68,4.68,0,0,1,4.63-4.92c2.72,0,4.59,2.08,4.59,5.34m2.2,1.51c0-6-2.8-8.42-6.58-8.42a6.52,6.52,0,0,0-6.76,6.88c0,3.81,2.35,6.22,6.06,6.22a6.19,6.19,0,0,0,5.17-2.56v.06c-.06.24-.15.91-.24,1.51q-1,7.11-7.43,7.1a11,11,0,0,1-2.66-.31v1.84a17.36,17.36,0,0,0,2.39.15c5.16,0,10-2.89,10-12.47m-19.41,7.49c0,2.24-1.91,3.39-4.14,3.39-2.66,0-4.26-1.39-4.26-3.51s1.9-3.44,4-4.74c2.27,1.27,4.45,2.54,4.45,4.86m-.4-11.14c0,1.54-1.09,2.68-3.77,4.38-2.45-1.36-4-2.54-4-4.41s1.54-3.27,4-3.27,3.74,1.45,3.74,3.3m2.45,10.84c0-2.51-1.93-4.14-4.68-5.62,2.2-1.42,4.25-2.93,4.25-5.4,0-2.69-2.08-4.68-5.55-4.68-3.78,0-6.16,2.08-6.16,5.07,0,2.23,1.45,3.75,4.1,5.26-2.23,1.45-4.43,3.11-4.43,5.76s2,4.92,6,4.92c3.69,0,6.5-2,6.5-5.31m-17.55,5V310h-1.6l-4.83,1.75.36,1.78,4.08-1.63v18.48Zm-14.53-18.78V310H103v1.6h6.31v18.78h1.93V311.59Zm-15.88,13c0-6.38-9.69-4.6-9.69-9.52,0-2.23,1.69-3.71,4.8-3.71a12.8,12.8,0,0,1,3.69.57l.12-1.81a20.46,20.46,0,0,0-3.66-.36c-4.35,0-6.91,2.35-6.91,5.52,0,6.35,9.66,4.53,9.66,9.58,0,3-2.35,4.08-5.1,4.08a13.36,13.36,0,0,1-4.17-.76l-.12,1.93a15,15,0,0,0,4.11.51c4.5,0,7.27-2.47,7.27-6M85.9,330.37v-1.59H77.77v-8.16H85.5v-1.54H77.77v-7.52H85.9V310H75.85v20.38Z" transform="translate(2.22 0.56)"/></g><g id="Logotype"><path class="cls-1" d="M542.84,70.15V57.36c0-7.63,4.47-14,10-14,4,0,5.16,2.57,5.2,7.14V78.72h18.29V71.24l-.15,0a45.32,45.32,0,0,0-6.57-1.07V47.74c0-7.72-3.25-14.2-13.24-14.21-6.88,0-11.92,3.33-14.68,8.2a54.93,54.93,0,0,0,.48-7.14V34.4H542q-1.77-.06-3.57-.06a114.28,114.28,0,0,0-14.2.86l-.16,0v7.4h.16c2.5.18,4.92.51,7,.85V70.15a54.21,54.21,0,0,0-7,1.07h-.15v7.49h24.66V71.16l-.15,0a31.57,31.57,0,0,0-5.78-1M500.49,43.52c6.5,0,9.4,4.43,9.43,12.87,0,8.87-4.18,13.22-9.61,13.22-6.42,0-9.58-4.43-9.61-13.4s4.86-12.69,9.79-12.69M499.34,79.6c13.24,0,22.57-10,22.59-23.83,0-15.16-8.13-22.13-20.65-22.15-13.42,0-22.58,10-22.59,23.73,0,15.69,8.14,22.23,20.65,22.25M458.48,55.77c0,7.45-3.51,14.18-9.25,14.2-5,0-7.3-4.06-7.32-12.25C441.93,46.9,446.4,43,452.76,43a26.61,26.61,0,0,1,5.72.67Zm11.58,13.95V13.86h-.19c-1.29,0-2.58-.06-3.86-.06a117.87,117.87,0,0,0-14.52.85l-.17,0v7.39l.19,0c2.48.17,4.89.51,7,.85V34a41,41,0,0,0-5.37-.32c-14.66,0-23.37,10.34-23.4,25.24,0,12.56,5.37,20.72,16.16,20.74h0c6.53,0,11.34-3.25,13.75-7.89a54.84,54.84,0,0,0-.44,6.82v.18h.17c1.16,0,2.35.06,3.53.06A101.58,101.58,0,0,0,476.61,78l.16,0V70.6h-.17c-2.15-.18-4.48-.52-6.54-.87m-70.42,1.44-.14,0a31.86,31.86,0,0,0-5.78-1V57.36c0-7.63,4.47-14,10-14,4,0,5.17,2.57,5.19,7.14V78.72h18.29V71.24l-.15,0a45.4,45.4,0,0,0-6.56-1.07V47.74c0-7.72-3.26-14.2-13.24-14.21-6.9,0-11.92,3.33-14.69,8.2a53.34,53.34,0,0,0,.49-7.14V34.4h-.18c-1.18,0-2.38-.06-3.59-.06a114.07,114.07,0,0,0-14.18.86l-.17,0v7.4h.17c2.5.18,4.91.51,7,.85V70.15a54.21,54.21,0,0,0-7,1.07H375v7.49h24.66ZM342.1,56.21c0-8.93,4.86-12.69,9.78-12.69,6.5,0,9.41,4.43,9.43,12.87,0,8.87-4.17,13.22-9.61,13.22-6.41,0-9.58-4.43-9.6-13.4m31.23-.44c0-15.16-8.14-22.13-20.66-22.15-13.42,0-22.57,10-22.59,23.73,0,15.69,8.14,22.23,20.66,22.25,13.24,0,22.57-10,22.59-23.83m-47.2,22.95V61.58h-8.29l0,.15c-.43,2.58-.86,5.09-1.05,7.18h-11V27.36a59.56,59.56,0,0,0,7-1.06l.15,0V18.79H286.74v7.48l.15,0a60,60,0,0,0,7,1.06V70.15a54.21,54.21,0,0,0-7,1.07h-.15v7.49h39.39Z" transform="translate(2.22 0.56)"/><path class="cls-1" d="M565.49,194.51h-5.82v16.32h-10v4.68h10.06v27.23c0,8.83,2.48,12.82,11.09,12.82a45.53,45.53,0,0,0,8.06-.78l.1,0v-5.24l-.17,0a25,25,0,0,1-6.49.78c-5.41,0-6.8-2-6.84-10.35V215.51H579v-4.68h-13.5ZM415.66,241.8c-.84,2.2-1.61,4.56-2.29,6.77-.68-2.36-1.37-4.49-2.31-7l-11-30.72h-6.65L410.23,255h6l0-.09,17.1-44.05H426.9Zm-30.58-47.29a4.1,4.1,0,1,0,4.1,4.11,4,4,0,0,0-4.1-4.11m79.21,31.84H441c1.27-7.17,5.78-11.72,12.18-11.73,6.94,0,11.16,4.68,11.16,11.46Zm-10.8-16.23c-12,0-19.1,9.8-19.12,22.9,0,15.48,7.06,22.63,20.18,22.63a38.21,38.21,0,0,0,14.25-2.56l.1,0-.57-5.25-.16.1a30.57,30.57,0,0,1-12.65,2.8c-9.73,0-15-5.21-15-18,0-.56,0-1.14.05-1.74h29.71l0-.12a20.9,20.9,0,0,0,.17-2.91c0-9.5-5-17.78-17-17.8m87.7-15.61a4.1,4.1,0,1,0,4.1,4.11,4,4,0,0,0-4.1-4.11m-31.44,27.65c0-4.5,3.44-7.33,10.19-7.35a32.57,32.57,0,0,1,9.22,1.49l.17.06.28-5.24-.12,0a42.68,42.68,0,0,0-8.76-1c-10.89,0-16.88,5.43-16.9,12.67.08,16,22.3,9,22.14,20,0,4.91-4.65,7.87-11.42,7.88a38,38,0,0,1-9.84-1.41l-.16,0-.19,5.58.11,0a43.39,43.39,0,0,0,9.38.87c11.34,0,18.12-6.13,18.14-13.71-.1-15.35-22.38-8.68-22.24-19.78M497.48,210c-7.85,0-12,5.74-13.68,11.51a64,64,0,0,0,1-10.53v-.15h-5.93V255h5.83V237.35c0-14,4-21.75,12.22-21.78a16.33,16.33,0,0,1,2.35.2l.16,0v-.14l.27-5.51-.12,0a16.94,16.94,0,0,0-2.08-.13m40.74,45h5.84V210.82h-5.84ZM325.63,232.84c0,13.29-5.64,17.93-17,18-13.52,0-16.43-7.39-16.45-16.19V195.12h-5.93v40.12c0,10,3.43,20.41,21.85,20.41,15.5,0,23.32-8.19,23.35-23.33v-37.2h-5.84Zm281.09,1.9c-1.78,5.1-3.58,10.27-4.33,13-.94-3.06-1.82-5.91-3.27-9.84l-9.91-27.1h-6.83l17,44.05-2.12,5.37c-3.81,9.79-6.38,12.34-11.95,12.34a18.58,18.58,0,0,1-5.36-.77l-.15-.05-.65,5.5.13,0a40,40,0,0,0,5.4.44h0c9.57,0,13.34-4.7,18.44-18.09l18.43-48.81h-6.39ZM382.11,255H388V210.82h-5.84ZM360.43,210a16.33,16.33,0,0,0-15.84,10.69,64.32,64.32,0,0,0,.72-9.75v-.15h-5.92V255h5.84V233.82c0-11,5.79-19,14-19,6.8,0,8.75,4.19,8.77,11.5V255h5.84V224.28c0-7.87-3.15-14.23-13.38-14.25m372.18-50.95a50.05,50.05,0,0,0-5.17-1L715.15,143l11.12-13.1a19,19,0,0,0,4.07-.84l.13,0v-6.52h-21.4V129l.12,0a13.61,13.61,0,0,0,3.34.76L703,142.05V101.91h-.18c-1.32,0-2.59-.05-3.81-.05a107.37,107.37,0,0,0-13.63.85l-.16,0v7.39l.17,0a47.75,47.75,0,0,1,6,.85v47.23a42.34,42.34,0,0,0-6,1.06l-.14,0v7.48H708v-7.54l-.12,0a20,20,0,0,0-4.91-1V144.92l15.87,21.85h13.88v-7.65ZM676,158.21V135.8c0-7.73-3.26-14.2-13.25-14.21-6.88,0-11.92,3.32-14.69,8.2a53.59,53.59,0,0,0,.5-7.15v-.18h-.18c-1.18,0-2.36,0-3.52,0a108.17,108.17,0,0,0-13.73.84l-.16,0v7.39l.17,0c2.48.17,4.4.51,6.47.84v26.68a46.5,46.5,0,0,0-6.49,1.07h-.15v7.47h23.6v-7.54l-.13,0a26.72,26.72,0,0,0-5.26-1v-12.8c0-7.62,4.47-14,10.06-14,4,0,5.15,2.56,5.19,7.14v28.23h17.77v-7.47H682a38.07,38.07,0,0,0-6-1.07m-66.32-9.89c0,5.31-3.75,10.4-9.18,10.41-3.19,0-5-1.76-5-4.5,0-4,3.75-6.65,14.2-6.69Zm11.67,9.47V137c0-4.83-1-8.73-3.83-11.42s-7.41-4.12-14.54-4.12a55.49,55.49,0,0,0-15.4,2.3l-.14,0v12.68h7.49l0-.14c.36-1.9.69-3.38.88-5.11a23.28,23.28,0,0,1,6-.76c6.12.05,7.8,2.27,7.84,6.88v2.47c-14.84.21-25.31,5.44-25.32,16.07,0,7.14,4.7,11.72,12.72,11.74,6.22,0,11.44-3.12,13.81-7.7a56.5,56.5,0,0,0-.33,6.73v.16h.18c1.17,0,2.36,0,3.55,0a116.13,116.13,0,0,0,13.61-.76H628v-7.49h-.17c-2.23-.17-4.48-.51-6.54-.85m-64.08-.56a52.45,52.45,0,0,1-6-.32V140.56c1.31-.08,4-.08,4.85-.08,7.48,0,12.35,2.35,12.35,8,0,5.27-3.67,8.7-11.21,8.72m-6-40.94c2-.08,4.13-.15,6.52-.15,7.2,0,9.6,2.81,9.62,7.12,0,5.18-3.83,8.27-11.73,8.29-1.7,0-3.14,0-4.41-.07Zm19.38,18.51a14.6,14.6,0,0,0,9.3-13.39c0-9.64-7.29-14.91-20.3-14.91-7.24,0-15.63.35-20.29.35h-7.08v7.48l.15,0a60.17,60.17,0,0,0,7,1.06v42.79a54.31,54.31,0,0,0-7,1.07h-.15v7.48h7.33c7.5,0,13.77.18,17.39.18,18,0,24.06-10,24.09-18.7a13.41,13.41,0,0,0-10.44-13.45m-68.52,23.41V135.8c0-7.73-3.26-14.2-13.24-14.21-6.6,0-11.57,3-14.24,7.74a45.87,45.87,0,0,0,.66-8.36V101.91h-.17c-1.34,0-2.64-.05-3.93-.05a119.14,119.14,0,0,0-14.56.85l-.16,0v7.39l.16,0a69.34,69.34,0,0,1,7,.85v47.23a56.51,56.51,0,0,0-7,1.06l-.14,0v7.47h24.74v-7.55l-.14,0a32.33,32.33,0,0,0-5.78-1v-12.8c0-7.62,4.38-14,10-14,4.13,0,5.25,2.56,5.29,7.14v28.24h18.29V159.3l-.15,0a51.24,51.24,0,0,0-6.57-1.06M442.39,106H430.72v16.52h-7.5v9.11h7.59v22.05c0,5.13.75,8.63,2.76,10.84s5.27,3.11,10.15,3.11a39.33,39.33,0,0,0,9.22-1.16l.13,0V157l-.23.06a21.65,21.65,0,0,1-5.42.71c-3.81,0-5-1.41-5-7V131.66h10.68v-9.11H442.39Zm-24.2,51.74V122.46H418q-1.92-.06-3.78-.06a131.38,131.38,0,0,0-13.46.69l-.17,0v7.56l.17,0c2.14.17,4,.5,5.76.76v12.47c0,7.61-4.48,14-10,14-4,0-5.17-2.56-5.2-7.14V122.46h-.18c-1.34,0-2.66-.06-4-.06a118.21,118.21,0,0,0-14,.77l-.15,0v7.48l.17,0c2.23.18,4.47.51,6.54.84v22c0,7.73,3.26,14.21,13.25,14.23,7,0,12.08-3.44,14.81-8.44a53.16,53.16,0,0,0-.45,7.38v.16h.18c1.17,0,2.36,0,3.56,0a115.83,115.83,0,0,0,13.6-.76h.17v-7.49h-.18c-2.22-.17-4.38-.51-6.45-.86M350,157.67c-6.42,0-9.59-4.43-9.61-13.4s4.85-12.7,9.78-12.7c6.5,0,9.41,4.43,9.44,12.87,0,8.87-4.18,13.22-9.61,13.23m1-36c-13.42,0-22.57,10-22.6,23.73,0,15.69,8.15,22.22,20.65,22.25,13.25,0,22.58-10,22.6-23.83,0-15.17-8.13-22.13-20.65-22.15M297.5,124c0-4.15,3.8-8.5,10.47-8.5a26.28,26.28,0,0,1,2.94.24c.18,2,.53,3.94.95,6.19l.05.15H321V108.45l-.1,0a32.41,32.41,0,0,0-12.7-2.91c-14.29,0-22.64,8.47-22.67,20.32.1,18.49,26.16,12.69,26,23.86,0,5.37-4.38,7.7-10.57,7.72a20.43,20.43,0,0,1-4-.42c-.18-2-.53-3.85-1-6.38l0-.14h-9.13v14.21l.11.05a34.16,34.16,0,0,0,13.77,3.09c14.45,0,23.53-7.64,23.54-19-.07-19-26.94-14.35-26.73-24.8" transform="translate(2.22 0.56)"/></g><g id="Logo"><path class="cls-1" d="M147.37,41.89l-.14-.11,0,0-.06-.09-.12-.19c-2-3.57,1.79-7.65,1.83-7.69a.75.75,0,0,0,.09-.91.74.74,0,0,0-.84-.33c-.05,0-4.65,1.28-7-1.75-1.95-2.54.19-6.17.21-6.2a.75.75,0,0,0-1.05-1s-4.2,2.65-7.65.52a5.86,5.86,0,0,1-2.83-5.76.75.75,0,0,0-1.36-.55S125.84,21.57,122,21s-5.32-4.61-5.34-4.65a.75.75,0,0,0-1.44.07,7.52,7.52,0,0,1-5.27,5.2c-4.16,1-7-2.44-7.07-2.59a.75.75,0,0,0-1.31.69,4.93,4.93,0,0,1-2.57,6,7.22,7.22,0,0,1-7.45-.57.75.75,0,0,0-1.15.88c.06.16,1.55,3.93-1,7-2.17,2.56-6.77,2-6.82,2a.76.76,0,0,0-.76.39.78.78,0,0,0,.09.85s2.2,2.59,2.2,4.94a7,7,0,0,1-.66,3.48,8,8,0,0,0-3.23-.89,6.66,6.66,0,0,0-5,2.42.75.75,0,0,0,.5,1.21c.19,0,4.72.68,5,7.7s1.78,11.55,4.58,14.24a9.09,9.09,0,0,0,7.13,2.58,12.16,12.16,0,0,1,3.83,8V80H96a3.36,3.36,0,0,0-3.25,3.32A3.86,3.86,0,0,0,94,86.11a3.64,3.64,0,0,0,1.12.7h0c-.85,1.58-.47,3.56,1.09,5.58h0A95.23,95.23,0,0,1,72,99.31h0c0-.08,0-.16,0-.26a42.28,42.28,0,0,0,.29-5.21,8.28,8.28,0,0,0-3-6.19,31.78,31.78,0,0,0,9.15,1.48,13.67,13.67,0,0,0,7.33-2.44l.27-.16c1.24-.76,3-1.8,3-1.8L90.26,84,89,83.4a18,18,0,0,1-3.84-2.69l-.2-.19c-1.93-1.81-5.51-5.16-10.74-5.16a33.28,33.28,0,0,0-5.17.37,19.86,19.86,0,0,0,2.37-1.57,14.63,14.63,0,0,0,4.81-8c.41-1.56,1-5.75,1-5.93l.12-.9-.91,0c-.48,0-11.69.8-16.11,8.64-1.48,2.62-2.92,3.66-5.3,5.39-1,.71-2.11,1.53-3.45,2.6-1.63,1.3-3.1,2.66-4.29,3.8,1.71-3.36,4.69-8.93,8.9-15.7C63,53.19,71.5,41.67,72,41.06l0,0,.11-.16L72,41l0,0,.34-.39a5.68,5.68,0,0,0,1.39-3.28c0-1.67-1.33-3.69-2.87-6l-.42-.63h0c-.5-.76-1-1.56-1.45-2.32a24,24,0,0,0-2.07-3.07l0,0c3.22-.71,9.75-1.64,18.55-2.64l.45-.06.61-.12a4.65,4.65,0,0,0,3-2.35l.06-.12c2.45-4.59,5.36-10.43,5.36-12.18,0-2.4-2.54-4.34-4.76-5.76a23.81,23.81,0,0,0-7-2.47l-.93-.17,0,1a30.65,30.65,0,0,1-.52,7,21.53,21.53,0,0,1-1.32,3.55h0c-1.07.07-3,.25-5.84.73a30.5,30.5,0,0,0-4.57,1.19,9.38,9.38,0,0,0,2.16-3.93,11.64,11.64,0,0,0,.17-3l0-.27L72,5.42s-1.65-1.61-2.26-2.33S68.16.93,68.15.91L67.52,0l-.61.93s-1.43,2.18-3.76,5a43.72,43.72,0,0,1-8,6.91c-4.07,3-7.6,5.53-7.6,8.92a6.58,6.58,0,0,0,1.27,3.39c.45.76,1,1.72,1.66,3.06a15.62,15.62,0,0,1,1.26,3.57,5,5,0,0,0,1.35,2.75,4.92,4.92,0,0,0,2.33.93h0a15.23,15.23,0,0,0,3.52.47h0A220.79,220.79,0,0,0,44.24,60.18c-2.63,5.07-4.79,10-6.22,13.42l0-.27A92.85,92.85,0,0,0,38.49,64c0-1.2,1.26-3.3,2.72-5.73L41.93,57A19.34,19.34,0,0,0,45,48.72a28.17,28.17,0,0,0-.45-8l-.17-.85-.82.29s-1,.38-2.66,1.06l-.56.23a11.14,11.14,0,0,0-5.64,4.27,17.65,17.65,0,0,0-2.52,6,30.63,30.63,0,0,0-2.1-6.32,15.1,15.1,0,0,0-7.24-7.81c-.59-.35-1.16-.68-1.69-1a38,38,0,0,1-5.22-4.89l-.72-.81-.5,1c-.06.1-1.33,2.59-1,8.09.47,7.32,2.69,10,5.51,13.52l.51.62c.51.64,1.29,1.65,2.1,2.7a10.18,10.18,0,0,0-5-1.47A16.13,16.13,0,0,0,9,57.54,23.82,23.82,0,0,1,5.85,59l-1.32.47,1.12.84s.79.59,1.59,1.14A8.82,8.82,0,0,1,8.8,62.91a11.78,11.78,0,0,0,4.9,3.54,20.12,20.12,0,0,0,5.68,1.29c2.32.29,4.15.51,5.31,2.12,3.19,4.41,3.14,12.43,3.13,15.07v.45l0,.36c.2,3.52,2.18,6.69,4.09,9.76,1.62,2.6,3.14,5,3.56,7.57a22.4,22.4,0,0,0,.59,2.74l0,0a15.38,15.38,0,0,0-5-4.08c-3.75-1.88-4.65-2.23-4.69-2.24l-1.08-.4.07,1.15a14.15,14.15,0,0,1-.1,2.18c0,.24-.09.58-.16,1-.35,2.08-1,5.94,0,9.43a18.46,18.46,0,0,0,6.19,8.92c-.44-.23-.89-.47-1.35-.73-.86-.48-1.67-1-2.47-1.43-3.69-2.19-7.18-4.26-12.35-4.26a46.9,46.9,0,0,0-11.73,2,19.31,19.31,0,0,1-2.3.56c-1.32.1-1.6.11-1.63.11H-2.22l1.12,1.26a18.91,18.91,0,0,1,2.23,3.32,24.85,24.85,0,0,0,19.45,11.5A62.91,62.91,0,0,0,29.8,134H30c-3.34,1.07-7.15,2.74-9.78,5.23-3.63,3.43-3.75,8.6-3.79,10.3v.22A13.29,13.29,0,0,1,15.8,154l-.6,1.36,1.45-.32c.3-.07,7.42-1.67,12-4.52a31.49,31.49,0,0,0,7.63-7.34,11.9,11.9,0,0,1,2.14-2.32,24.49,24.49,0,0,1,5-1c1.45-.22,3.19-.49,5.25-.85a135.63,135.63,0,0,0,16.78-4.5c-2.09,1.05-5.42,2.76-9.42,4.91C43.84,146,27,156.21,22.2,168.79a8.62,8.62,0,0,0-.67,3.85c.08,5.06,1.11,7.14,2,9a10.71,10.71,0,0,1,1.37,5.57c0,.68,0,1.32,0,1.94,0,3.68-.08,6.59,1.7,10.36.69,1.46,1.42,2.89,2.13,4.26,2.47,4.81,4.8,9.35,4.8,14.36,0,4.15-1.58,5.57-3.42,7.21a12.66,12.66,0,0,0-3.55,4.48,24.74,24.74,0,0,0-2,10.09l0,.75.76,0c.27,0,6.72-.41,10.19-3.4a17.52,17.52,0,0,0,4.44-6.15,2,2,0,0,0,0,.24c-.19,1.29-.46,2.69-.72,4.05a36.63,36.63,0,0,0-.84,5.64c0,2.6,1.58,5.46,3,8a31,31,0,0,1,1.54,3c1.1,2.77,1.29,3.16,1.31,3.2l.4.8.72-.53c.33-.25,8.27-6.23,8.27-16.79a27.72,27.72,0,0,0-1.77-9.26,27.91,27.91,0,0,0,3.38,4c3.52,3,9.43,2.26,10.09,2.16a21,21,0,0,1,3.38-.13l1.14.06-.4-1.07c-.11-.28-2.65-6.95-6-10.28a15.58,15.58,0,0,0-5.74-3.54,15,15,0,0,1-7.92-6.31c-3.27-4.71-6.28-8.71-8.3-11.31C43,204,45.22,205.44,48,207.4c7.95,5.53,12.7,9.06,18.85,14a73.21,73.21,0,0,1,12.38,12.21l0,0a2.07,2.07,0,0,1-.11.25c-2.4,5-8.19,6.55-10.62,6.55a16,16,0,0,1-3.78-.3l-1.43-.44,3.75,10.55.17.13c.08.06,2,1.55,5.9,1.55a8.09,8.09,0,0,0,4.25-1.2c-.56,1.07-1.15,2.27-1.71,3.55-1.16,2.64-2.36,5.37-2.36,8.92a4.34,4.34,0,0,0,.19,1.36,5.66,5.66,0,0,0,1.72,3c.53.46,1.63,1.25,2.89,2.15,1.56,1.11,3.33,2.37,4.3,3.22l.59.52c1.38,1.24,2.14,1.92,4,1.92a17,17,0,0,0,4.08-1.15c3.51-1.21,8.81-3,13.15-3a7.94,7.94,0,0,1,1.06.07,18.39,18.39,0,0,1-3,1.65l-1,.42.8.8a32.51,32.51,0,0,1,3.5,4.6,39.13,39.13,0,0,1,2.94,5.36l.26.63.66-.2c.35-.12,8.63-2.83,8.63-9.68a4.7,4.7,0,0,0-1.75-4.17l-.61-.59c-.45-.48-1.18-1.3-2-2.23l0,0a163.08,163.08,0,0,0,15.25,10.84l.77.48.77-.48a161.57,161.57,0,0,0,15.24-10.84l-.05,0c-.79.93-1.52,1.75-2,2.23l-.61.59a4.7,4.7,0,0,0-1.75,4.17c0,6.85,8.28,9.56,8.63,9.68l.66.2.26-.63a39.13,39.13,0,0,1,2.94-5.36,32.51,32.51,0,0,1,3.5-4.6l.8-.8-1-.42a18.39,18.39,0,0,1-3-1.65,7.94,7.94,0,0,1,1.06-.07c4.34,0,9.64,1.82,13.15,3a17,17,0,0,0,4.08,1.15c1.84,0,2.6-.68,4-1.92l.59-.52c1-.85,2.74-2.11,4.3-3.22,1.26-.9,2.36-1.69,2.89-2.15a5.66,5.66,0,0,0,1.72-3,4.34,4.34,0,0,0,.19-1.36c0-3.55-1.2-6.28-2.36-8.92-.56-1.28-1.15-2.48-1.71-3.55a8.09,8.09,0,0,0,4.25,1.2c3.92,0,5.82-1.49,5.9-1.55l.17-.13L196,239.7l-1.43.44a16.15,16.15,0,0,1-3.78.3c-2.43,0-8.22-1.6-10.62-6.55a2.07,2.07,0,0,1-.11-.25l0,0a73.21,73.21,0,0,1,12.38-12.21c6.14-4.92,10.9-8.45,18.85-14,2.81-2,5-3.43,6.59-4.49-2,2.6-5,6.6-8.3,11.31a15,15,0,0,1-7.92,6.31,15.58,15.58,0,0,0-5.74,3.54c-3.32,3.33-5.86,10-6,10.28l-.41,1.07,1.15-.06a20.84,20.84,0,0,1,3.37.13c.67.1,6.58.87,10.1-2.16a27.91,27.91,0,0,0,3.38-4,27.72,27.72,0,0,0-1.77,9.26c0,10.56,7.94,16.54,8.27,16.79l.72.53.4-.8s.21-.43,1.31-3.2a33.13,33.13,0,0,1,1.53-3c1.4-2.52,3-5.38,3-8a37.92,37.92,0,0,0-.84-5.64c-.26-1.36-.53-2.76-.72-4.05a2,2,0,0,0,0-.24,17.52,17.52,0,0,0,4.44,6.15c3.47,3,9.92,3.38,10.19,3.4l.76,0,0-.75a24.74,24.74,0,0,0-2-10.09,12.66,12.66,0,0,0-3.55-4.48c-1.84-1.64-3.42-3.06-3.42-7.21,0-5,2.33-9.55,4.8-14.36.71-1.37,1.44-2.8,2.13-4.26,1.78-3.77,1.74-6.68,1.7-10.36,0-.62,0-1.26,0-1.94a10.71,10.71,0,0,1,1.37-5.57c.91-1.84,1.94-3.92,2-9a8.62,8.62,0,0,0-.67-3.85c-4.78-12.58-21.64-22.81-33.91-29.41-2.79-1.5-5.24-2.78-7.19-3.78l.05,0a121.62,121.62,0,0,0,14.14,3.65c2.06.36,3.8.63,5.25.85a24.51,24.51,0,0,1,5,1,11.9,11.9,0,0,1,2.14,2.32,31.37,31.37,0,0,0,7.64,7.34c4.6,2.85,11.72,4.45,12,4.52l1.45.32-.6-1.36a13.16,13.16,0,0,1-.64-4.25v-.22c0-1.7-.15-6.87-3.78-10.3-2.64-2.49-6.45-4.16-9.78-5.23h.21a63.05,63.05,0,0,0,9.23.11,24.84,24.84,0,0,0,19.44-11.5,18.91,18.91,0,0,1,2.23-3.32l1.13-1.26h-1.68s-.32,0-1.64-.11a19.31,19.31,0,0,1-2.3-.56,46.9,46.9,0,0,0-11.72-2c-5.17,0-8.66,2.07-12.36,4.26-.8.47-1.61,1-2.46,1.43l-1.35.73a18.45,18.45,0,0,0,6.18-8.92c1-3.49.31-7.35,0-9.43-.07-.42-.12-.76-.15-1a12.71,12.71,0,0,1-.1-2.18l.07-1.15-1.09.4s-.94.36-4.69,2.24a14.9,14.9,0,0,0-4.47,3.46v0a22.45,22.45,0,0,0,.51-2.4c.41-2.52,1.94-5,3.55-7.57,1.91-3.07,3.89-6.24,4.09-9.76l0-.36v-.45c0-2.64-.06-10.66,3.13-15.07,1.16-1.61,3-1.83,5.31-2.12a20,20,0,0,0,5.68-1.29,11.78,11.78,0,0,0,4.9-3.54,8.82,8.82,0,0,1,1.56-1.49c.8-.55,1.59-1.14,1.59-1.14l1.12-.84L253.58,59a24.45,24.45,0,0,1-3.18-1.43,16.13,16.13,0,0,0-7.86-2.32,10.18,10.18,0,0,0-5,1.47c.81-1,1.59-2.06,2.1-2.7l.51-.62c2.82-3.47,5-6.2,5.52-13.52.35-5.5-.92-8-1-8.09l-.51-1-.72.81a38,38,0,0,1-5.22,4.89c-.53.37-1.09.7-1.69,1a15.14,15.14,0,0,0-7.24,7.81,30.54,30.54,0,0,0-2.09,6.32,17.64,17.64,0,0,0-2.53-6,11.12,11.12,0,0,0-5.63-4.27l-.57-.23c-1.61-.68-2.62-1-2.66-1.06l-.82-.29-.17.85a28.57,28.57,0,0,0-.45,8A19.47,19.47,0,0,0,217.5,57l.72,1.22c1.46,2.43,2.72,4.53,2.72,5.73a92.85,92.85,0,0,0,.44,9.38,2.51,2.51,0,0,0,0,.27c-1.44-3.45-3.6-8.35-6.23-13.42a217.53,217.53,0,0,0-14.71-24.26h0a15.32,15.32,0,0,0,3.53-.47h0a4.92,4.92,0,0,0,2.33-.93,4.93,4.93,0,0,0,1.35-2.75A15.27,15.27,0,0,1,209,28.19c.65-1.34,1.21-2.3,1.65-3.06a6.49,6.49,0,0,0,1.27-3.39c0-3.39-3.52-5.95-7.6-8.92a43.72,43.72,0,0,1-8-6.91c-2.32-2.8-3.74-5-3.76-5L191.91,0l-.63.91s-1,1.46-1.63,2.18-2.24,2.32-2.25,2.33l-.2.2,0,.27a11.43,11.43,0,0,0,.16,3,9.38,9.38,0,0,0,2.16,3.93,29.89,29.89,0,0,0-4.57-1.19c-2.86-.48-4.77-.66-5.84-.73h0a21.63,21.63,0,0,1-1.33-3.55,30.65,30.65,0,0,1-.52-7l0-.95-.93.17a23.78,23.78,0,0,0-7,2.47c-2.22,1.42-4.77,3.36-4.77,5.76,0,1.75,2.91,7.59,5.36,12.18l.06.12a4.64,4.64,0,0,0,3,2.35l.61.11c.15,0,15.78,2,19,2.71l0,0a24,24,0,0,0-2.07,3.07c-.46.76-1,1.56-1.45,2.32h0l-.42.63c-1.54,2.35-2.87,4.37-2.87,6a5.68,5.68,0,0,0,1.39,3.28l.34.39,0,0-.06-.09.12.16,0,0c.45.61,9,12.13,15.78,23.08,4.2,6.77,7.18,12.34,8.89,15.7-1.18-1.14-2.66-2.5-4.28-3.8-1.35-1.07-2.47-1.89-3.46-2.6-2.38-1.73-3.82-2.77-5.3-5.39-4.41-7.84-15.63-8.61-16.11-8.64l-.9,0,.11.9c0,.18.58,4.37,1,5.93a14.68,14.68,0,0,0,4.81,8,19.86,19.86,0,0,0,2.37,1.57,33.28,33.28,0,0,0-5.17-.37c-5.23,0-8.81,3.35-10.73,5.16l-.21.19a18,18,0,0,1-3.84,2.69l-1.26.62,1.21.71s1.8,1,3,1.8l.27.16A13.68,13.68,0,0,0,181,89.13a31.77,31.77,0,0,0,9.14-1.48,8.28,8.28,0,0,0-3,6.19,41.62,41.62,0,0,0,.28,5.14c-6.64-1.32-15.32-3.93-25.13-7.06h0a11.55,11.55,0,0,0-.81-5.32,7.09,7.09,0,0,0-4-3.93l.32-.13a23,23,0,0,0,8.91-4.11,20.5,20.5,0,0,0,8.22-17.07,46.56,46.56,0,0,0-.81-7.94,39.26,39.26,0,0,1-.68-6.39c0-4.34,2.56-6.19,5.66-8,2.81-1.64,3.45-2.44,4.07-3.21l.31-.39a3.23,3.23,0,0,0,.82-2.43.75.75,0,0,0-.46-.61.77.77,0,0,0-.76.12,6.74,6.74,0,0,1-4,1.32,2.9,2.9,0,0,1-2.38-1c-1.38-1.66-.79-4.91-.79-4.95a.75.75,0,0,0-1.41-.46s-1.4,2.81-4,3.25c-3.61.62-5.41-2.83-5.48-3a.75.75,0,0,0-1.42.43s.49,4.23-1.75,5.73a8.49,8.49,0,0,1-5.65.93.75.75,0,0,0-.51,1.39c.07,0,7.1,4,7.1,8.08a3.18,3.18,0,0,1-2.24,3.3,3.85,3.85,0,0,1-4.28-2.35,27.63,27.63,0,0,1-1.64-8.48A.77.77,0,0,0,154,36a.76.76,0,0,0-.83.49c-.64,1.81-2,4.68-2.78,5.11-1.79.94-2.72.52-3,.27m-35.88,6.77h0Zm-9.13-1.15-.1,0h0A42.12,42.12,0,0,1,103,42a32.78,32.78,0,0,1,1.35-4.7l0,0a3.89,3.89,0,0,0,1.73,1.7,4.27,4.27,0,0,0,1.9.48l0,0c-.75.8-1.59,1.72-2.36,2.6a21.65,21.65,0,0,0-3.23,5.47Zm3.13,1.82-.19-.18v0l.18-.26Zm.74-1.29a11.74,11.74,0,0,1,2.34-1.7c1.39-.78,2.61-1.36,3.55-1.78l0,0a6,6,0,0,0-.71,2.53l-.26.17Zm-2.14.2-.32-.18h0a20.48,20.48,0,0,1,3-5c.84-1,1.78-2,2.57-2.81l0,0A3.54,3.54,0,0,0,110,42a3.83,3.83,0,0,0,1.5,1.25h0c-1,.43-2.18,1-3.59,1.81a10.53,10.53,0,0,0-3.72,3.2Zm-3.3-1h-.45a6.13,6.13,0,0,0-.62,0l-.06-.2a25.87,25.87,0,0,1-1.45-7.61,15.19,15.19,0,0,1,.25-3.24,3.88,3.88,0,0,0,2.84,1.48,3.17,3.17,0,0,0,1.39-.34v0a33,33,0,0,0-1.17,4.3,41.81,41.81,0,0,0-.72,5.55Zm10.7,1.42h0Zm19.92,24.39a6.84,6.84,0,0,1,1.57-.16c2.3,0,5,1,7.47,2.13a22.05,22.05,0,0,0,5,1.23l.85.11V48.67l3.16,2,0,27a28.36,28.36,0,0,1-9.81-1.54,15.87,15.87,0,0,0-5.45-1.16,7,7,0,0,0-.88,0,4.09,4.09,0,0,0-1.88-1.93Zm-3.74,0A4.08,4.08,0,0,0,125.81,75a13.9,13.9,0,0,0-6.33,1.11,28.43,28.43,0,0,1-9.81,1.54l0-27,3.21-2V76.36l.85-.11a21.93,21.93,0,0,0,5-1.23h0c2.52-1.11,5.18-2.13,7.47-2.13a6.71,6.71,0,0,1,1.55.16Zm4.12.39M30.57,81.53c-.06-1.14-.15-2.36-.26-3.73a.19.19,0,0,0-.21-.19.22.22,0,0,0-.2.21c0,.92,0,2,0,3.16s0,2.32,0,3.4,0,1.74,0,2.36v0a5,5,0,0,1-.54-1,2.25,2.25,0,0,1-.09-.35h0a1,1,0,0,1,0-.17v-.45c0-2.75.07-11.15-3.41-16-1.54-2.14-3.87-2.43-6.34-2.73a19.08,19.08,0,0,1-5.29-1.19,10.3,10.3,0,0,1-4.35-3.15A10.19,10.19,0,0,0,8,60l-.45-.31c.63-.27,1.41-.63,2.13-1a14.61,14.61,0,0,1,7.11-2.12c4.26,0,8.05,4.36,8.09,4.41l.35.41,1.6-.65L26.2,60c-.16-.21-3.89-5.19-5.41-7.07l-.51-.63c-2.75-3.38-4.74-5.82-5.18-12.66a19.88,19.88,0,0,1,.43-6.22,32.25,32.25,0,0,0,4.63,4.2c.59.41,1.2.76,1.79,1.11a13.66,13.66,0,0,1,6.63,7.13,27.25,27.25,0,0,1,2.58,11.75c0,.24,0,.44,0,.61l0,.72H33v-1c-.16-5.81,1.46-9.48,2.86-11.53a9.59,9.59,0,0,1,5-3.72l.58-.24,1.75-.72a24.94,24.94,0,0,1,.28,6.64,18.08,18.08,0,0,1-2.88,7.74l-.73,1.21c-1.69,2.84-2.92,4.89-2.92,6.5A89.52,89.52,0,0,1,36.41,73c-.39,3.46-.75,5.36-.76,5.37l-.12.65,1.56.52.25-.69a176.06,176.06,0,0,1,8.09-18.15A211,211,0,0,1,60.58,35.87h0l.56,0h0a74.85,74.85,0,0,0-4.64,8.22.21.21,0,0,0,.09.28.19.19,0,0,0,.1,0,.23.23,0,0,0,.19-.1c1.59-2.59,4-6.44,5.19-8.36h0l1.49.15h0A100.39,100.39,0,0,0,58.29,45a.21.21,0,0,0,.08.28.23.23,0,0,0,.11,0,.21.21,0,0,0,.18-.09c1-1.51,2.83-4.26,5.81-8.95h0c.5.06,1,.13,1.46.21h0c-1.37,2-3.89,5.91-5.85,9.37a.21.21,0,0,0,.07.29.27.27,0,0,0,.12,0,.2.2,0,0,0,.17-.09c2.59-3.57,5.24-7.67,6.35-9.45l1.46.29h0l-.19.28c-1.43,2.13-4.39,6.57-6.19,9.5a.22.22,0,0,0,.06.29.28.28,0,0,0,.13,0,.22.22,0,0,0,.17-.09c2.94-3.83,5.55-7.73,6.84-9.82.26.06.5.13.74.2a2,2,0,0,1,.53.22h0c-1.28,2-4.83,7.26-6.69,10a.23.23,0,0,0,.05.3.22.22,0,0,0,.13,0,.23.23,0,0,0,.17-.08,90.66,90.66,0,0,0,6.89-9.6h0v0A3,3,0,0,1,70.59,40c-.61.83-9.08,12.27-15.83,23.16A193.27,193.27,0,0,0,44.08,82.54l-.19.42,1,1.24.59-.65a62.92,62.92,0,0,1,6.87-6.48c1.32-1.06,2.42-1.86,3.39-2.56,2.47-1.79,4.09-3,5.73-5.87,3.32-5.89,11.27-7.42,14-7.78-.19,1.35-.55,3.77-.82,4.8a13.22,13.22,0,0,1-4.29,7.17,32,32,0,0,1-7.71,4L62,77l.46,1.58.7-.17,1.4-.35a34.36,34.36,0,0,1,9.55-1.36c4.64,0,7.82,3,9.72,4.76l.2.19a19.09,19.09,0,0,0,3,2.28c-.6.36-1.34.79-1.94,1.16l-.28.17a12.22,12.22,0,0,1-6.54,2.22,30.16,30.16,0,0,1-9-1.53c-2-.72-5.31-1.73-5.34-1.74L63.12,84l-.34,1.65.62.22c.08,0,7.23,2.5,7.23,7.84a42.46,42.46,0,0,1-.28,5c0,.24,0,.44-.07.62l-1.22.12a25.15,25.15,0,0,1-6.29-3.62,9.7,9.7,0,0,1-3-4.49,3.67,3.67,0,0,0-.94-1.67,8.48,8.48,0,0,0-4.49-1.1,8.6,8.6,0,0,0-5.51,1.85,19.44,19.44,0,0,0-4.78,6.1l-.8-.33h0c.35-.68.76-1.42,1.26-2.24s.87-1.37,1.37-2.06,1.18-1.58,1.85-2.36a.21.21,0,0,0,0-.29.2.2,0,0,0-.28,0,27.76,27.76,0,0,0-2,2.21c-.53.66-1,1.35-1.51,2.05-.59.89-1,1.69-1.42,2.35L41.3,95.3h0c.34-.79.73-1.68,1.22-2.68.32-.64.68-1.37,1.13-2.13l0-.06c.51-.88,1-1.71,1.56-2.55a.21.21,0,0,0-.33-.25,23.62,23.62,0,0,0-1.61,2.24l-.1.15c-.54.84-1,1.64-1.29,2.17l-.06.1-.1.18c-.48.89-.85,1.7-1.14,2.34a.67.67,0,0,1-.06.12h0l-1.06-.54-.08,0h0l0-.12c.3-.86,2.85-7.09,3.3-8a.2.2,0,0,0-.09-.27.2.2,0,0,0-.27.07c-.47.71-2.1,3.93-2.5,4.83,0,0-.81,1.91-1.06,2.52-.06.14-.13.35-.22.56h0c-.34-.19-.69-.39-1-.61h0c.14-.49.28-1,.37-1.32l.6-2.08c.06-.22.13-.44.19-.67.15-.55.31-1.12.53-1.72l0-.07c.28-.89.59-1.85,1-2.92a.2.2,0,0,0-.11-.26.21.21,0,0,0-.27.1,24.48,24.48,0,0,0-1.08,2.55l-.06.16c-.25.64-.47,1.27-.68,1.87l-.23.67-.06.16c-.28.84-.5,1.61-.67,2.23-.06.19-.14.52-.23.85h0L36,92.24h0c.23-1.1.49-2.5.73-3.68,0-.26.1-.54.16-.82.11-.54.21-1.1.36-1.7V86c.15-.59.28-1.22.41-1.9.08-.39.16-.79.25-1.21a.21.21,0,0,0-.4-.11c-.31.86-.58,1.84-.81,2.7l0,.17c-.16.56-.3,1.13-.43,1.67-.08.3-.15.58-.22.87l0,.12c0,.06,0,.11,0,.17-.21.85-.37,1.64-.5,2.27,0,.24-.11.63-.17,1h0c-.33-.23-.66-.48-1-.72h0c.14-1,.31-2.33.49-3.78,0-.35.24-2.11.32-2.66,0,0,.18-1.57.27-2.39l.09-1a.21.21,0,0,0-.17-.23.22.22,0,0,0-.24.16c-.22.94-.4,2-.54,2.85,0,0-.76,4.46-1.09,6.34h0l-.92-.78h0c.15-1.23.25-2.39.32-3.69,0-.38,0-.77,0-1.18s0-1,.06-1.61V83c0-.92,0-2,.05-3.47a.21.21,0,0,0-.19-.21.2.2,0,0,0-.22.19c-.1.81-.19,1.79-.28,3l0,.2-.12,1.42c0,.46-.07.91-.11,1.35l0,.3c-.07.82-.12,1.58-.17,2.22,0,.34,0,.65-.07.91-.44-.41-.83-.82-1.18-1.21h0c.06-1,.11-2,.1-3.2,0-.9,0-1.86-.09-2.93m72.67,1.4h-.44a12.91,12.91,0,0,0,1.1-4.35,9.45,9.45,0,0,0,1.6,2.26V81A21.46,21.46,0,0,0,103.24,82.93Zm14.48,1.21a55.89,55.89,0,0,0-9.12,2.76,6.57,6.57,0,0,0-3.44-3.49l-.27-.11a5.76,5.76,0,0,1,.65-.55l11-1.73a1.89,1.89,0,0,1,.28.17A4.19,4.19,0,0,1,118.38,84l-.48.1-.16,0m-13.64-20c.25,0,.62.5.62,1.15a21.73,21.73,0,0,1-.91,4c-.14.47-.27.94-.4,1.4a11.78,11.78,0,0,1-.19-5.15c.27-1,.65-1.42.86-1.42Zm8.76-17.23M95.58,73.39c1.55,1.16,4.13,3.53,4.13,6.43a3.33,3.33,0,0,1-1.21,2.64,3,3,0,0,0-.88-1.9A13.75,13.75,0,0,0,95.58,73.39Zm53,50.7c-2.87,3.89-9.34,5.35-11.26,5.7-1.61.31-4.3.55-5.69.66a30.7,30.7,0,0,1,1-5c.81-2.62,3.32-4.83,5.36-6.61,2.77-1.82,9.14-6,8.88-14.59,0-.9,0-2.38,0-3v-.31c0-.2,0-.39,0-.57a11.68,11.68,0,0,0,6.5,1.14.89.89,0,0,0,.79-.89c.07-1.94-6-12.5-23.19-15.32-1.26-.25-2.57-.46-4-.63a48.41,48.41,0,0,1,10.81,1.11c1.51.33,3,.73,4.38,1.18,3.47,1.11,6.88,2.22,10.21,3.3,18.41,6,34.31,11.15,42.7,11.34,9.95.23,19.69-3.53,24.61-5.8a34.35,34.35,0,0,0,9.55-7.18,32.06,32.06,0,0,1-3.4,5.84c-1.79,2.63-3.64,5.35-4.12,8.22a35.1,35.1,0,0,1-.8,4c-.86.86-7.87,7.5-18,7.5-10.69,0-24.64-3.63-28.54-5l-.27-.08c-2.38-.81-6.07-2-8.28-2.69l-1.87-.6-.81-.27-.16.84c-.63,3.31,1.77,11.55,5.81,17.22,6.06,8.49,9.83,11.24,11.09,12,0,.13.05.31.07.57.21,2.88-.24,5.06-1.31,6.29a3.85,3.85,0,0,1-2.82,1.26,11.35,11.35,0,0,1-3.25-.46c-4.66-1.54-10.78-7.58-15.23-15-.32-.53-.61-1.09-.9-1.64a34.56,34.56,0,0,1-3.46-14.34h-1.5C151.47,115.33,150.93,121,148.61,124.09Zm31.24,60.78V144.7h-.91a7.83,7.83,0,0,0,1.11-.65h.48V184c-1.3,40.33-9.81,67.14-51,93.2h.07c-41.22-26.06-49.74-52.87-51-93.2V144.05H79a7.83,7.83,0,0,0,1.11.65h-.91v40.17Zm41-52.78v1.75l.64.1c.11,0,10.83,1.59,16.06,6.52,3.18,3,3.28,7.7,3.32,9.25v.23a19.57,19.57,0,0,0,.39,3.47,41.65,41.65,0,0,1-10.33-4,30.51,30.51,0,0,1-7.26-7c-1.17-1.46-1.95-2.42-2.69-2.75a24.09,24.09,0,0,0-5.43-1.14c-1.44-.22-3.17-.48-5.22-.84a141.08,141.08,0,0,1-18.72-5.19c0-1.08-.14-2.51-.34-3.85-.13-.9-.24-1.47-.32-1.82,1.12-1.35,2-2.39,2.76-3.19.49-.54,1-1.06,1.55-1.56a34,34,0,0,0,5.2.4c15.38,0,16.92-3.39,19-8.08l.26-.57c2.58-5.6,5.23-8.85,8.62-10.54,1.74-.87,2.85-1.41,3.54-1.73,0,.35,0,.77.1,1.25,0,.27.09.63.17,1.09.33,2,1,5.6.07,8.77-2.13,7.66-11.46,11.88-11.55,11.92l-.79.35.84,1.34.52-.13a36.31,36.31,0,0,0,8.32-3.58c.87-.48,1.69-1,2.5-1.45,3.67-2.17,6.83-4,11.59-4A45.11,45.11,0,0,1,255.06,119a19.38,19.38,0,0,0,2.58.6l.29,0A24.51,24.51,0,0,0,256.4,122a23.25,23.25,0,0,1-18.23,10.73,63.13,63.13,0,0,1-9-.11l-1.52-.1c-4-.22-5.92-.39-5.93-.4Zm-.38-22.88a39,39,0,0,0-2.06,4l-.27.58c-2,4.34-3.27,7.2-17.68,7.2a30.93,30.93,0,0,1-3.58-.2h-.12c.37-.31.6-.48.6-.48l.31-.23v-.38a5.79,5.79,0,0,0-2-4.13l-.19-.15a59.64,59.64,0,0,0,7.6.51,26.71,26.71,0,0,0,17.36-6.65ZM209,23.08a.05.05,0,0,1,0,0,.05.05,0,0,0,0,0m-14.52,2.66c3.71,1.44,8.31,5,9,6.92.23.64.22,1.11,0,1.21a17.67,17.67,0,0,1-4,.45l-.6,0a48,48,0,0,0-10,1.51,3.11,3.11,0,0,0-1.8,1.23c.11-1.23,1.39-3.17,2.62-5l.42-.63h0c.5-.77,1-1.59,1.48-2.36a18.47,18.47,0,0,1,2-3l.17-.08A1.8,1.8,0,0,1,194.45,25.74Zm-1.28,74a21.86,21.86,0,0,0,4.18-2.7,11.24,11.24,0,0,0,3.42-5.11,3.8,3.8,0,0,1,.47-1c.69-.55,5.13-1.7,8.11.74A17.66,17.66,0,0,1,213.62,97c-7.26,1.83-13.29,2.76-17.93,2.76-.83,0-1.66,0-2.49,0Zm12.45-66.94a4.07,4.07,0,0,1-.44.55h0a3.42,3.42,0,0,0-.2-1c-1-3-6.09-6.55-10.17-8.07l-.29-.1c-3-1-14.11-2.4-20.44-3.12l-.28,0a1.64,1.64,0,0,1-1.15-1.43c-.14-1,.39-2.65,2.35-3.79A13,13,0,0,1,179.37,14l1-.12-.68-1.46,0,0c1.09.09,2.69.28,4.86.64a50.2,50.2,0,0,1,10.17,3.43l.82.39.42-1.67-.52-.28s-2.14-1.12-4-2.32a7.46,7.46,0,0,1-2.8-4.1,9.41,9.41,0,0,1-.15-2.3c.47-.46,1.61-1.61,2.14-2.22.33-.39.75-.95,1.09-1.42.64.91,1.75,2.43,3.24,4.22a45,45,0,0,0,8.31,7.17c3.75,2.73,7,5.08,7,7.7,0,.13,0,.25,0,.37v0l-.17-.34-.09-.17-.19-.32-.12-.2c-.06-.1-.13-.2-.2-.3l-.16-.23-.22-.3-.2-.25-.23-.28-.25-.27-.25-.27a2.47,2.47,0,0,0-.28-.28,2.23,2.23,0,0,0-.27-.26l-.32-.29-.65-.54-.72-.53-.78-.52L204,15.92c-.3-.15-.6-.3-.92-.44a.22.22,0,0,0-.27.09.22.22,0,0,0,.07.28c4,2.6,6.19,4.84,7,7.31h0l-.44.77h0a8.22,8.22,0,0,0-.42-.84.05.05,0,0,1,0,0,8.47,8.47,0,0,0-.63-.93l0-.07c-.24-.3-.51-.61-.81-.92l-.07-.08a12.57,12.57,0,0,0-1-.91l-.1-.08a12.48,12.48,0,0,0-1.18-.88l-.1-.07c-.43-.29-.89-.57-1.39-.85l-.07,0c-.52-.28-1.07-.55-1.65-.8a.19.19,0,0,0-.26.09.19.19,0,0,0,.07.27c4.22,2.68,6.53,5.06,7,7.24h0c-.19.34-.4.72-.62,1.14,0-.08-.07-.17-.11-.25a.93.93,0,0,0-.05-.1,3.14,3.14,0,0,0-.18-.37s0-.08-.07-.13-.13-.23-.2-.35l-.11-.16c-.07-.11-.14-.22-.22-.33l-.14-.18a3.33,3.33,0,0,0-.24-.32l-.17-.21c-.09-.09-.17-.19-.26-.29l-.22-.23-.27-.28-.26-.24-.29-.26-.31-.25c-.1-.08-.19-.17-.3-.25l-.36-.26-.31-.22c-.13-.1-.27-.18-.41-.27l-.32-.21-.49-.28-.31-.18c-.18-.1-.38-.2-.58-.29l-.28-.15c-.3-.14-.61-.28-.93-.41a.21.21,0,0,0-.27.1.2.2,0,0,0,.08.27c4.11,2.56,6.49,5.06,7,7.3h0v0c-.15.32-.29.62-.41.91h0a6.72,6.72,0,0,0-.39-.75l0-.06a8.47,8.47,0,0,0-.63-.93l-.06-.08c-.25-.31-.51-.61-.81-.92l-.09-.09a12.43,12.43,0,0,0-1-.89l-.11-.09c-.37-.29-.76-.58-1.18-.86l-.12-.07c-.43-.28-.89-.55-1.39-.81a.2.2,0,0,1-.08,0c-.52-.26-1.07-.52-1.65-.75a.21.21,0,0,0-.26.1.2.2,0,0,0,.08.27c4.51,2.75,6.87,5.08,7.24,7.18h0c-.16.46-.27.87-.36,1.23h0c-.06-.16-.12-.31-.19-.47,0,0,0,0,0,0-.08-.17-.17-.35-.27-.53l0-.05c-.1-.17-.21-.34-.32-.51l-.06-.08a5.45,5.45,0,0,0-.37-.47.76.76,0,0,0-.08-.11l-.4-.44-.13-.13c-.13-.13-.27-.27-.42-.4a1.29,1.29,0,0,1-.17-.16l-.44-.36-.23-.18-.45-.33-.29-.2c-.15-.1-.29-.2-.45-.29l-.37-.23-.42-.24-.47-.25-.4-.21-.59-.27-.33-.15-1-.41a.21.21,0,0,0-.26.11.2.2,0,0,0,.08.27c5.4,3.23,7.77,5.84,7.4,8.15m13.31,192.75-1.47.19v.66a42.92,42.92,0,0,0,.37,5c.2,1.33.47,2.75.74,4.12a38.46,38.46,0,0,1,.81,5.35c0,2.22-1.49,4.9-2.79,7.26a28.84,28.84,0,0,0-1.61,3.17l-.89,2.19c-1.93-1.73-6.93-7-6.93-14.95a28.72,28.72,0,0,1,2.55-11c.47-1.13,1.25-2.61,1.26-2.62l.35-.68-1.32-.66-.38.45s-1.13,1.34-2.41,3l-.54.72a33,33,0,0,1-3.59,4.29c-2.45,2.11-6.75,2.13-8.9,1.81a19.46,19.46,0,0,0-2.51-.17c.84-2,2.86-6.35,5.21-8.7a14,14,0,0,1,5.24-3.21,16.54,16.54,0,0,0,8.58-6.85c5.79-8.33,10.74-14.39,10.79-14.45l.38-.46-.87-1.1-.56.34s-3.16,1.92-10.11,6.76c-8,5.56-12.76,9.1-18.93,14a76.91,76.91,0,0,0-12,11.7.93.93,0,0,1,0-.13,33.68,33.68,0,0,1-.5-13,13.41,13.41,0,0,1,2.25-5.57c3.42-5.07,9.7-8.45,12.72-10.07l.64-.34c4.71-2.56,12.18-5.61,17.11-7.62,2.29-.94,3.94-1.61,4.56-1.93,1.82-.93,3-1.41,3-1.41l.57-.22-.28-1.7-.76.15a54.52,54.52,0,0,1-9.19.91c-1.47,0-2.86-.14-4.21-.27a39.64,39.64,0,0,0-4.16-.27,18.64,18.64,0,0,0-4.46.72,15.29,15.29,0,0,1-3.6.62,14,14,0,0,1-7.74-2.83c-.35-.24-.65-.43-.87-.56s-.73-.39-1.07-.57c1.12-1.35,3.79-4.24,6.54-4.92,4.27-1.07,11.8.78,11.87.8l.52.13,1-1.51-.95-.3a33,33,0,0,1-12.84-8.52c-4.39-4.86-5.1-14.87-5.37-18.64,0-.71-.08-1.13-.12-1.37a6.51,6.51,0,0,0-.39-1.29,20.32,20.32,0,0,1,11.49,6.63,25.78,25.78,0,0,1,5.79,10.17,19.23,19.23,0,0,0,2.29,5.06c1.74,2.55,2.5,3.62,2.62,3.76l.45.54,1.51-1.11-.54-.61c-.16-.18-3.92-4.63-1.68-11.72a7.67,7.67,0,0,1,3.08-3.85c.56-.4,1.07-.69,1.43-.9l.25-.14c.73-.44,1.46-.94,2-1.32.83,2.29,2.19,6.38,2.19,7.88v.3a18.6,18.6,0,0,1-.92,5.7,11.17,11.17,0,0,0-.64,3.42c0,2.7,5.3,5.34,9.25,5.34a34.67,34.67,0,0,0,4-.18,19.65,19.65,0,0,0,3.58-.77,10.49,10.49,0,0,0,6.3-6,15.09,15.09,0,0,1-1.79,6.55A12.11,12.11,0,0,0,232.8,187c0,.69,0,1.34,0,2,.05,3.63.08,6.25-1.55,9.7-.68,1.44-1.41,2.86-2.11,4.22-2.56,5-5,9.67-5,15,0,4.83,2,6.61,3.92,8.33a11.14,11.14,0,0,1,3.18,4,24.26,24.26,0,0,1,1.92,8.62c-1.78-.19-6.09-.87-8.5-3a16.27,16.27,0,0,1-4.24-6,19.55,19.55,0,0,1-1.4-3.7Zm-63.55,48.17a38.21,38.21,0,0,0-3,4.05,41.64,41.64,0,0,0-2.77,4.94c-1.82-.74-7-3.25-7-8a3.27,3.27,0,0,1,1.28-3.08c.2-.19.42-.4.65-.64,1-1.05,3.43-3.87,4.87-5.7a5.74,5.74,0,0,0,0,.73,7.88,7.88,0,0,0,2.45,5.33s.84.78,1.23,1.08A13.45,13.45,0,0,0,155.37,273.68Zm-.49-12.15h0a20.7,20.7,0,0,1,5.61-.62A31.67,31.67,0,0,1,172.1,263c.83.3,1.71.61,2.66,1,3.76,1.46,6.4,2.31,8.2,2.24-.49.41-1.6,1.2-2.77,2-1.59,1.13-3.39,2.42-4.42,3.32l-.59.53c-1.29,1.15-1.72,1.54-3,1.54a20.9,20.9,0,0,1-3.59-1.08c-3.6-1.24-9-3.11-13.64-3.11h0a7.78,7.78,0,0,0-2.39.35l0,0a6.18,6.18,0,0,1-1.62-3.87c0-2.25,1.26-3.66,3.95-4.43m5.61-2.12a22,22,0,0,0-6,.68l-.6.17.16-.15a90.52,90.52,0,0,0,12.82-15.56h0v.31c0,3.32,1.52,7.43,2.8,10.29a24.39,24.39,0,0,1,1.76,6.07h0a32.51,32.51,0,0,0-10.92-1.81,22,22,0,0,0-6,.68m15.82-21.32a17.39,17.39,0,0,0,1.54,6.87.21.21,0,0,0,.19.13l.09,0a.22.22,0,0,0,.11-.28,19.78,19.78,0,0,1-1.06-8.46c.28-.54.52-1,.78-1.58a20.18,20.18,0,0,0,1.78,7.08.21.21,0,0,0,.19.12l.09,0a.22.22,0,0,0,.11-.29c-1.15-2.59-1.32-6.12-1.28-8.82.25-.57.5-1.15.73-1.72a22.67,22.67,0,0,0,2.05,7.59.22.22,0,0,0,.19.12.19.19,0,0,0,.1,0,.21.21,0,0,0,.1-.28c-1-2.05-1.46-5.33-1.49-9.76h0c.21-.55.42-1.11.62-1.67a25,25,0,0,0,2.37,8.48.24.24,0,0,0,.19.12.19.19,0,0,0,.1,0,.22.22,0,0,0,.1-.29c-1-2.13-1.65-6.11-1.73-11.33h0c.3-.91.57-1.83.84-2.76v0a33.93,33.93,0,0,0,.89,10,11.62,11.62,0,0,0,.47,1.61c.08.23.14.37.14.37a4.52,4.52,0,0,0,.19.43c2.61,5.38,8.73,7.39,12,7.39a26.89,26.89,0,0,0,2.86-.14l-2.67,7.51a9.27,9.27,0,0,1-4.81,1.11c-4.27,0-6.48-4.08-6.5-4.12l-.38-.71-1.53.94.41.64a63.57,63.57,0,0,1,4.09,7.71c1.1,2.5,2.24,5.08,2.24,8.31,0,1.11-.39,1.37-.51,1.46-1.18.8-4.81-.43-8.56-1.88-.81-.33-1.57-.6-2.3-.86a25.94,25.94,0,0,0-2-7.23c-1.72-3.86-2.67-7.3-2.67-9.68a7.35,7.35,0,0,1,.31-2.12h0a15,15,0,0,0,1.27,6,.23.23,0,0,0,.2.13l.08,0a.21.21,0,0,0,.12-.27,17.1,17.1,0,0,1-.8-8.15l.76-1.7M182,152.15a5.24,5.24,0,0,1,.54,1.49c0,.15.06.64.1,1.21.27,3.91,1,14.29,5.75,19.53a33.58,33.58,0,0,0,8.79,6.85,22.19,22.19,0,0,0-7.64.09c-3.52.88-6.7,4.6-7.66,5.82h0c.05-1,.09-2.07.12-3.11Zm-.18,36.46.05,0s1.07.53,1.83,1c.2.11.46.29.77.5a15.37,15.37,0,0,0,8.57,3.08,17,17,0,0,0,4-.66,16.74,16.74,0,0,1,4.09-.68c1.36,0,2.65.13,4,.26s2.82.28,4.36.28A49.62,49.62,0,0,0,215,192c-.8.36-2.24.94-4,1.65-5,2-12.48,5.09-17.27,7.69l-.63.34c-3.12,1.68-9.63,5.17-13.26,10.56-.29.44-.58.92-.83,1.37a168.21,168.21,0,0,0,2.84-25ZM207,160.32a8.62,8.62,0,0,0-2.87,4,15.34,15.34,0,0,0-.59,7.2,26.46,26.46,0,0,1-1.21-3.15,27,27,0,0,0-6.09-10.69c-6.34-7.08-13.63-7.29-13.94-7.29H182v-7.86h-.12l.45-.4c2.71,1.82,11.56,7.83,18.08,12.8,2.31,1.75,4.07,3.16,6.6,5.35Zm8.9,8.27c1.37,1.47,3.63,3.91,5.18,5.71a36.31,36.31,0,0,1,3.79,5.36c-1,.07-2,.07-2.69.07-3.77,0-7.75-2.5-7.75-3.84a9.77,9.77,0,0,1,.57-3A19.92,19.92,0,0,0,215.92,168.59Zm-19.92-28a.22.22,0,0,0-.08-.29c-2.18-1.22-4.12-2.46-5.66-3.53a5.13,5.13,0,0,0,1-.79h0a38.8,38.8,0,0,0,5.55,2.87.11.11,0,0,0,.08,0,.21.21,0,0,0,.19-.12.22.22,0,0,0-.09-.29,52,52,0,0,1-5.26-3.08h0a1.77,1.77,0,0,0,.15-.31c1.88.94,5.7,2.88,10.5,5.46,12,6.46,28.5,16.44,33.17,28.49,0,.19,0,.37,0,.56-.77-1.24-1.59-2.39-2.34-3.41a.21.21,0,0,0-.3,0,.22.22,0,0,0-.06.29h0c.57.94,1.83,3.33,2.56,4.72h0a13.16,13.16,0,0,1-.32,1.47c0,.05,0,.1,0,.15h0c-.25-.39-.52-.79-.82-1.22-.48-.67-1-1.39-1.59-2.14l-.18-.24a.22.22,0,0,0-.29-.05.23.23,0,0,0-.07.29c.84,1.48,1.79,3.26,2.48,4.6h0a9.22,9.22,0,0,1-.54,1h0c-.59-1-1.38-2.17-2.37-3.65a.22.22,0,0,0-.29-.07.2.2,0,0,0-.08.28c.23.49.5,1,.77,1.58.47.94.94,1.88,1.35,2.75h0a8.7,8.7,0,0,1-1,1.07h0c-.52-.89-1.29-2.14-2.44-3.94a.22.22,0,0,0-.29-.08.21.21,0,0,0-.09.28c.25.55.55,1.17.86,1.81.42.86.83,1.73,1.21,2.54h0a12.18,12.18,0,0,1-1.1.68c-.54-1-1.35-2.33-2.45-4.06a.22.22,0,0,0-.38.21c.58,1.23,1.33,2.84,2,4.26l-.39.15a8.27,8.27,0,0,1-1,.29h0c-.55-.95-1.32-2.26-2.37-3.9a.21.21,0,0,0-.28-.08.22.22,0,0,0-.09.29c.51,1.08,1.19,2.54,1.79,3.88h0l-.81.13a46.62,46.62,0,0,0-4.3-6.16c-2-2.37-5.37-5.93-6.22-6.84v0c0-2.33-2.36-8.63-2.63-9.34l-.36-.95-.8.62s-1.35,1-2.66,1.82l-.22.13c-.28.15-.65.37-1.07.64-2.4-2.07-4.73-4-6.93-5.64-6.34-4.82-14.85-10.62-17.84-12.64l.48-.42,0,0a73.25,73.25,0,0,0,8.41,5.54l.11,0a.22.22,0,0,0,.18-.1.21.21,0,0,0-.05-.29c-2.48-1.75-6.17-4.38-8-5.71h0c.33-.26.62-.49,1-.73h0a64,64,0,0,0,7.88,5,.19.19,0,0,0,.1,0,.21.21,0,0,0,.19-.11.21.21,0,0,0-.07-.29c-2.42-1.57-5.53-3.75-7.37-5.08h0c.36-.22.74-.43,1.13-.63h0a55.83,55.83,0,0,0,7.11,4.25.19.19,0,0,0,.1,0,.21.21,0,0,0,.19-.11.23.23,0,0,0-.08-.3c-2.33-1.4-4.78-3.06-6.5-4.29.41-.21.81-.41,1.19-.62a48.59,48.59,0,0,0,6.2,3.46.15.15,0,0,0,.09,0,.21.21,0,0,0,.19-.11m-17.65,5.58H152.83m-23.5-1.7s-.14-.17-.33-.45h41.66a11.87,11.87,0,0,0,1.54.64H129.5ZM87.47,144h17.71c.09.24.18.48.28.71H85.6A13.62,13.62,0,0,0,87.47,144Zm65-44a8.72,8.72,0,0,1-5.91-1.66.75.75,0,0,0-1.26.56s.07,4.18.11,5.33c.22,7.27-4.76,11-7.94,13.14a1.11,1.11,0,0,1,.07-.16c1.7-3.83,4.86-11,4.65-17.73-.18-5.82-2.11-8.83-6.41-11.61C147,91.15,151.61,97.94,152.49,100Zm.75,0Zm-36.92,38.83a45.55,45.55,0,0,1,14.19-10.71c-.32,1.72-.44,3.07-.45,3.15l-.07.87.87-.06c.18,0,4.44-.32,6.76-.75,2-.38,9-2,12.19-6.29a16.38,16.38,0,0,0,2.51-6.19,32.1,32.1,0,0,0,2.89,8.51c.3.58.61,1.15.94,1.71h0a45.9,45.9,0,0,0,12,13.54H159.4c-.62-2.6-3.48-12.47-11.61-12.84-6.13-.3-10.66,5.85-12.21,8.27a7.26,7.26,0,0,0-4.23-2.57,4.61,4.61,0,0,0-3.75,1.36c-2.73,2.51-1.29,6.12.14,8.12a21,21,0,0,1-10,4.69l-.2-10.38-1.35-.26Zm-5.52-2.94a3.23,3.23,0,0,0-1.58-3.19,4.13,4.13,0,0,0-2.67-.43,27.7,27.7,0,0,1,2.34-4.93l5.34,11.22a.56.56,0,0,0,0,.08l-2.44-.47-4.06,7.7h0a12.4,12.4,0,0,1-1.9-5.07A5,5,0,0,0,110.8,135.83Zm4.37,2Zm-36.49-1.26a5.54,5.54,0,0,1,.07-.87c0-.24.06-.49.1-.74l1.76-1.43c3-2.42,6-7.38,7.44-12.36.25-.81,1-4.72,1.14-5.74a56.37,56.37,0,0,0,.41-6.23v-.82A57.21,57.21,0,0,1,100,115.53v.13a30.58,30.58,0,0,1-.15,5.62l0,.34a33.32,33.32,0,0,1-2.87,10c-.12.26-.25.52-.39.79l-.32.63-.24.47c-.37.66-.73,1.29-1.13,1.9A20.69,20.69,0,0,1,91,139.92a16.73,16.73,0,0,1-4.18,2.7,11.45,11.45,0,0,1-4.46,1.11c-.16,0-.91-.13-1.16-.18C79.47,142.75,78.68,139.46,78.68,136.54ZM36.83,102.68c-.46-2.81-2.14-5.51-3.76-8.11a40,40,0,0,1-2.84-5.08,38.21,38.21,0,0,0,8.58,6.22c1.15.61,2.21,1.13,3.1,1.56.7.31,1.46.63,2.27.93l.72.18c7.5,1.91,13.74,2.87,18.56,2.87,15.43,0,30.52-6.31,35.88-8.81-1.86,1.4-4.11,3.14-6.32,4.9s-5,4-6.56,5.45c-.34.31-.62.58-.82.8a3.68,3.68,0,0,0-.35.42c-.49.72-.5,1-.5,1.12a1.25,1.25,0,0,0,.77,1.23c.33.14,1.77.77,3.8,1.85l-.74.24-2.18.68-.15.05-2.13.63H84l-.09.07a105.1,105.1,0,0,1-28.32,4.19A25.59,25.59,0,0,1,38,106.64l-.09-.09C37.81,106.4,37.31,105.59,36.83,102.68Zm13.34-79.6a.05.05,0,0,0,0,0,.05.05,0,0,1,0,0m92.49,61.25c-.11-.7-.2-1.33-.29-1.77h0c-.13-.66-.26-1.19-.39-1.63l8.14,1.3c1.46,1.58,1.63,3.92,1.77,5.81,0,.15,0,.29,0,.42l-9.09-2.94C142.77,85.11,142.71,84.71,142.66,84.33Zm10.9-26.59a7,7,0,0,1,8.21,1.79c2.94,3,3.47,7.14,2.47,9.51a3.71,3.71,0,0,1-3.67,2.42,3.59,3.59,0,0,1-2.72-.92,2.89,2.89,0,0,1-.69-2.15,5.24,5.24,0,0,1,.83-2.3.75.75,0,0,0,0-.86.76.76,0,0,0-.81-.3,4.46,4.46,0,0,1-3.62-.3ZM129.5,279l0,0,0,0ZM164,74.55m.85-1.54-4.06,3M143.06,41.21m28.15,13A59.84,59.84,0,0,1,171.36,43a73.47,73.47,0,0,1,3-11.29l0-.06a5.22,5.22,0,0,0,1,2,4.35,4.35,0,0,0,3.53,1.51,8.11,8.11,0,0,0,3-.57,1.47,1.47,0,0,0-.1.13c-.53.66-1.08,1.35-3.65,2.84-3.24,1.89-6.41,4.17-6.41,9.29a39.34,39.34,0,0,0,.71,6.64c.09.6.19,1.21.29,1.83l0,0a3,3,0,0,0-.81-.35h0a4.84,4.84,0,0,0-.71-.73Zm-7.36,5.42a12.35,12.35,0,0,0-1-1.17l-.38-.37-.08-.1c.69.54,1.25,1,1.53,1.26h0l0,.24v0Zm3.49-.89a5.14,5.14,0,0,0-1.38,0,5,5,0,0,0-.56.1v0c-.07-1.08,0-2.85,1.49-3.66a2.76,2.76,0,0,1,3,0h0a5.26,5.26,0,0,0-1.38.87,3.8,3.8,0,0,0-1.17,2.75Zm5.89,3.12a4.45,4.45,0,0,0-3.87-1.28l-.33.08h0c-.23-1.12-.36-2.8.48-3.52a2.35,2.35,0,0,1,2-.74,2.85,2.85,0,0,1,1.59,1.44l0,0a32.35,32.35,0,0,1,.17,3.35c0,.23,0,.45,0,.67Zm-.26,3-3,4.71a4.75,4.75,0,0,1,1.51-2.69,2.75,2.75,0,0,1,1.15-.48h0a19.05,19.05,0,0,1-1.39,3.86l0,0a4.79,4.79,0,0,0-1.28-.65ZM153.56,66.3l0,0a4.74,4.74,0,0,0,1.32.31l0,0-1.24,1h0l-.08-.11Zm0,3.55a11.41,11.41,0,0,0,2.69,2v0a1.88,1.88,0,0,1-1,.82,1.66,1.66,0,0,1-1.71-.27Zm0,4.27a3.08,3.08,0,0,0,1,.2,3.87,3.87,0,0,0,1.14-.19,3.7,3.7,0,0,0,.4-.16h0a2.68,2.68,0,0,1-.7,2.38,1.92,1.92,0,0,1-1.87.7Zm0,4.46.37,0a3.26,3.26,0,0,0,1.31-.28h0a3.09,3.09,0,0,0,.55.3h0a16.35,16.35,0,0,1-2.21.49h0Zm3.82-5.71c.09-.13.17-.27.24-.39h0a9.61,9.61,0,0,0,1.58.39l1,.09h.38v0a2.34,2.34,0,0,1-2.93,1.89h0a4.73,4.73,0,0,0-.28-2Zm-.1,3.46a4,4,0,0,0,1,.12,3.37,3.37,0,0,0,.87-.1v0a1.53,1.53,0,0,1-1,.81,2.77,2.77,0,0,1-1.54.12h0a4.32,4.32,0,0,0,.67-1Zm-2.63-7.56,1-.8,0,0c0,.12,0,.23,0,.35a5.11,5.11,0,0,0,.13,1.48h0a11.93,11.93,0,0,1-1.14-1Zm-1.09,11.85h.17a16.44,16.44,0,0,0,7.51-3.08h0a1,1,0,0,1,.42.76c0,.59-.58,1.25-.91,1.54v0a16,16,0,0,1-7.19,1.39ZM164,74.55h0a2,2,0,0,1,1.36.44,2.19,2.19,0,0,1-.05,2.32h0a19.31,19.31,0,0,1-2.17,1.38v0a2.5,2.5,0,0,0,0-.48,2.47,2.47,0,0,0-.78-1.67h0a12.06,12.06,0,0,0,1.6-2m.85-1.54,0,0a10,10,0,0,1,3.75-2,2.9,2.9,0,0,1,1.94.68v0a18.81,18.81,0,0,1-3.36,4.14h0a3,3,0,0,0-.66-1.72,2.83,2.83,0,0,0-1.74-.93h0a.54.54,0,0,0,.05-.11m1.3-5.16,0-.35c0-.21,0-.42.05-.63h0a2.23,2.23,0,0,1,1.53.93,3.84,3.84,0,0,1,.6,1.64v0a7.49,7.49,0,0,0-2.65,1.1h0a16.5,16.5,0,0,0,.44-2.71m-.23-3.91a12,12,0,0,0-1.22-3l0,0a2.45,2.45,0,0,1,1.42-.67,3,3,0,0,1,1.29.09h0c.06.39.13.74.2,1h0a5.35,5.35,0,0,0-1.75,2.57Zm1.18,1.59c.12-1,.62-3.07,2.57-3.46,1.66-.32,3,1.29,3.44,1.89h0c0,.32-.08.62-.13.93h0a4.3,4.3,0,0,0-2.38.83,5,5,0,0,0-1.34,1.61c-.08-.13-.16-.26-.25-.39a3.64,3.64,0,0,0-1.92-1.42ZM151.74,46.77a11.77,11.77,0,0,1,1.14-.56.75.75,0,0,0,.44-.87.74.74,0,0,0-.78-.57,6.25,6.25,0,0,1-3.72-1.24h0A6.47,6.47,0,0,0,151,42.8a7.31,7.31,0,0,0,2.3-3.09,30,30,0,0,0,1.48,5.9,2.75,2.75,0,0,0,.15.36l.09.23a17,17,0,0,0,4.78,6l4.1,3.39,0,0c-1.06-.67-2.84-1.82-5.56-3.64-2-1.34-3.59-2.55-4.77-3.51v-.35l-.51-.08c-.6-.51-1.07-.94-1.41-1.25Zm1.82,3.66c1.07.84,2.38,1.8,3.93,2.83l.67.45.12.08c-2.22-.84-4-1.6-4.73-1.92Zm0,3.07c1,.42,2.53,1.07,4.41,1.77a13.51,13.51,0,0,1,2.48,1.34l-.08,0a8.31,8.31,0,0,0-6.52-.58l-.29.11Zm10.33-7.4a26.17,26.17,0,0,1,.93,3.54l.87,4.49h0a4.72,4.72,0,0,0-.61.56h0c-.65-.54-1.92-1.6-4.35-3.59a17.92,17.92,0,0,1-2.23-2.2l0,0a4.83,4.83,0,0,0,2.3,0,4.32,4.32,0,0,0,3.1-2.88l0,.08m3.19,7.31-.79-4A27.52,27.52,0,0,0,163.77,42l-.15-.21a15.58,15.58,0,0,0-5-5.5A8.27,8.27,0,0,0,162.56,35a5.18,5.18,0,0,0,2-2.76v0a107.91,107.91,0,0,1,2.34,12.89c.53,5,.65,7.22.67,8.13h0a4.43,4.43,0,0,0-.49.13Zm2-.18c0-1-.15-3.33-.66-8.24a113.5,113.5,0,0,0-2.63-14.08v-.08A6.2,6.2,0,0,0,170.64,32a6.08,6.08,0,0,0,2.41-1l0,.06a75,75,0,0,0-3.16,11.75,59.59,59.59,0,0,0-.23,10.52h0a3.51,3.51,0,0,0-.58-.13ZM37,131.86s-1.93.18-5.94.4l-1.52.1a63,63,0,0,1-9,.11A23.2,23.2,0,0,1,2.31,121.74a24.33,24.33,0,0,0-1.54-2.45l.3,0a19.71,19.71,0,0,0,2.57-.6A45.2,45.2,0,0,1,15,116.73c4.76,0,7.93,1.88,11.59,4,.81.48,1.63,1,2.5,1.45a36.31,36.31,0,0,0,8.32,3.58l.53.13.83-1.34-.79-.35c-.09,0-9.42-4.26-11.55-11.92-.88-3.17-.26-6.82.07-8.78.08-.45.14-.81.17-1.08.05-.48.08-.9.1-1.25.69.32,1.8.86,3.54,1.73,3.39,1.69,6,4.94,8.62,10.54l.27.57c2.13,4.69,3.67,8.08,19,8.08a34,34,0,0,0,5.2-.4c.54.5,1.06,1,1.55,1.56.74.8,1.65,1.84,2.76,3.19-.08.35-.19.92-.32,1.82a36.2,36.2,0,0,0-.33,3.85,141.81,141.81,0,0,1-18.73,5.19c-2.05.36-3.77.62-5.22.84a24.36,24.36,0,0,0-5.43,1.14c-.74.33-1.51,1.29-2.69,2.75a30.14,30.14,0,0,1-7.26,7,41.75,41.75,0,0,1-10.32,4,19.75,19.75,0,0,0,.38-3.47v-.23c0-1.55.14-6.25,3.31-9.25,5.23-4.93,16-6.51,16.06-6.53l.64-.09v-1.75ZM65.33,26l.17.08a18.47,18.47,0,0,1,2,3c.47.77,1,1.59,1.48,2.36h0l.42.63c1.23,1.88,2.51,3.82,2.62,5a3.11,3.11,0,0,0-1.8-1.23,48,48,0,0,0-10-1.51l-.6,0a17.67,17.67,0,0,1-4-.45c-.26-.1-.27-.57,0-1.21.73-2,5.33-5.48,9-6.92A1.72,1.72,0,0,1,65.33,26ZM40,226.18a20.5,20.5,0,0,1-1.4,3.7,16.39,16.39,0,0,1-4.24,6c-2.42,2.09-6.73,2.77-8.5,3a24,24,0,0,1,1.92-8.62,11.14,11.14,0,0,1,3.18-4c1.92-1.72,3.92-3.5,3.92-8.33,0-5.37-2.42-10.07-5-15-.71-1.36-1.43-2.78-2.11-4.22-1.63-3.45-1.6-6.07-1.55-9.7,0-.62,0-1.27,0-2a12.11,12.11,0,0,0-1.52-6.23A15.09,15.09,0,0,1,23,174.26a10.46,10.46,0,0,0,6.3,6,19.48,19.48,0,0,0,3.58.77,34.59,34.59,0,0,0,4,.18c4,0,9.25-2.64,9.25-5.34a11.17,11.17,0,0,0-.64-3.42,18.55,18.55,0,0,1-.93-5.7v-.3c0-1.5,1.36-5.59,2.19-7.88.53.38,1.25.88,2,1.32l.24.14a15.71,15.71,0,0,1,1.44.9,7.67,7.67,0,0,1,3.08,3.85c2.23,7.09-1.52,11.54-1.68,11.72l-.54.61,1.51,1.11.45-.54c.12-.14.87-1.21,2.62-3.76a19.23,19.23,0,0,0,2.29-5.06,25.73,25.73,0,0,1,5.78-10.17,20.38,20.38,0,0,1,11.49-6.63,6.52,6.52,0,0,0-.38,1.29,13.3,13.3,0,0,0-.13,1.37c-.26,3.77-1,13.78-5.37,18.64A32.93,32.93,0,0,1,56.7,181.9l-1,.3,1,1.51.52-.13c.07,0,7.6-1.87,11.87-.8,2.74.68,5.41,3.57,6.54,4.92-.34.18-.74.38-1.07.57s-.52.32-.88.56A14,14,0,0,1,66,191.66a15.29,15.29,0,0,1-3.6-.62,18.48,18.48,0,0,0-4.45-.72,39.64,39.64,0,0,0-4.16.27c-1.35.13-2.75.27-4.21.27a54.87,54.87,0,0,1-9.2-.91l-.75-.15-.28,1.7.56.22s1.23.48,3.05,1.41c.61.32,2.27,1,4.56,1.93,4.93,2,12.39,5.06,17.11,7.62l.64.34c3,1.62,9.3,5,12.72,10.07a13.55,13.55,0,0,1,2.25,5.57,33.68,33.68,0,0,1-.5,13,.5.5,0,0,0,0,.13,76.91,76.91,0,0,0-12-11.7c-6.17-4.94-11-8.48-18.93-14-7-4.84-10.08-6.74-10.11-6.76l-.57-.34L37.2,200l.38.46c.05.06,5,6.12,10.79,14.45A16.54,16.54,0,0,0,57,221.78,14,14,0,0,1,62.19,225c2.35,2.35,4.36,6.71,5.21,8.7a19.34,19.34,0,0,0-2.51.17c-2.15.32-6.45.3-8.9-1.81a32.18,32.18,0,0,1-3.59-4.29l-.54-.72c-1.28-1.7-2.41-3-2.42-3l-.38-.45-1.32.66.36.68s.78,1.49,1.26,2.62a28.69,28.69,0,0,1,2.54,11c0,7.94-5,13.22-6.92,14.95l-.89-2.19a30.72,30.72,0,0,0-1.61-3.17c-1.31-2.36-2.79-5-2.79-7.26a38.46,38.46,0,0,1,.81-5.35c.27-1.37.54-2.79.74-4.12a42.92,42.92,0,0,0,.37-5v-.66l-1.47-.19ZM68.8,114.58c.49-.09,1.49,1.13,2.35,2.18.45.54.94,1.13,1.48,1.72.24.26.48.52.73.76a24.09,24.09,0,0,0,3.1,2.4,20.59,20.59,0,0,1,2.42,1.83,4.5,4.5,0,0,0-1.4-.2,8.26,8.26,0,0,0-3.63,1,18.32,18.32,0,0,0-3.22,2.11c-.24.2-.46.38-.63.54-.24-.29-.53-.66-.88-1.07-1.24-1.5-2.24-2.66-3.05-3.55-.59-.64-1.21-1.26-1.91-1.89s-1.27-1.11-1.62-1.38C62.72,118,63.67,115.14,68.8,114.58Zm111.06,9.12a21.74,21.74,0,0,1,2.42-1.84,23.17,23.17,0,0,0,3.1-2.39c.25-.25.49-.5.73-.76.54-.59,1-1.18,1.48-1.73.86-1,1.84-2.24,2.35-2.18,5.14.57,6.08,3.43,6.26,4.44-.35.27-.92.74-1.62,1.38s-1.32,1.26-1.9,1.89c-.82.88-1.85,2.07-3.06,3.54l-.87,1.07-.64-.53a17.6,17.6,0,0,0-3.22-2.11,8.22,8.22,0,0,0-3.63-1A4.5,4.5,0,0,0,179.86,123.7ZM106,272.37c.39-.3,1.21-1.06,1.24-1.08a7.88,7.88,0,0,0,2.45-5.33,5.74,5.74,0,0,0,0-.73c1.44,1.83,3.86,4.65,4.87,5.7.23.24.44.45.65.64a3.27,3.27,0,0,1,1.28,3.08c0,4.77-5.14,7.28-7,8a43.18,43.18,0,0,0-2.77-4.94,36.58,36.58,0,0,0-3-4.05A12.71,12.71,0,0,0,106,272.37Zm-1.77-10.84c2.7.77,4,2.18,4,4.43a6.18,6.18,0,0,1-1.62,3.87l0,0a7.65,7.65,0,0,0-2.38-.35h0c-4.6,0-10,1.87-13.64,3.11a21.17,21.17,0,0,1-3.59,1.08c-1.27,0-1.71-.39-3-1.54l-.6-.53c-1-.9-2.82-2.19-4.41-3.32-1.17-.84-2.28-1.63-2.77-2,1.8.07,4.43-.78,8.2-2.24,1-.37,1.82-.68,2.66-1a31.67,31.67,0,0,1,11.61-2.13,20.62,20.62,0,0,1,5.6.62h0m34-124.63c1.88-2.41,5.36-5.92,9.53-5.69,5.17.28,7.95,5,9.36,8.82l.72,2.52h-17A13,13,0,0,0,138.19,136.9ZM126.66,79.4a5,5,0,0,1,1.82,1.15A6.73,6.73,0,0,1,130,83.16a48.09,48.09,0,0,0-7.52.2c-.9.09-1.78.21-2.63.36a6,6,0,0,0-1.37-3Zm-12.36.46,16.5-.73,9.48,1.51c.07.15.13.31.19.47a17.6,17.6,0,0,1,.43,1.74c.09.43.18,1,.27,1.71,0,.15.05.31.08.47-1-.3-2.07-.56-3.1-.79-.72-.15-1.43-.29-2.13-.41l-.64-.1-.15,0q-.61-.1-1.23-.18l-1-.12-.89-.09-.25,0-.28,0a10.2,10.2,0,0,0-2.35-4A4,4,0,0,1,130.8,79.13Zm45.31,32.14c2.8.81,7.21,1.91,12.09,2.81l0,0a18.18,18.18,0,0,0-1.73,1.92c-.29.35-.6.73-.93,1.11h0c-1.48-.7-4.3-2.07-6.5-3.32a10.75,10.75,0,0,1-2.93-2.59ZM181.26,125a6.82,6.82,0,0,1,3,.82,16.08,16.08,0,0,1,2.94,1.93c.7.57,1.14,1,1.14,1l.6.59.52-.65.36-.45c0,.15.05.33.08.52a38,38,0,0,1,.33,4.14h0c0,.45,0,.89,0,1.29v.31c0,.79-1.51,1.55-3,2.3a24,24,0,0,0-2.34,1.29,13.56,13.56,0,0,0-3.55,2.87,3.93,3.93,0,0,1-.31.38,12.22,12.22,0,0,0,.55-3.87c0-.36,0-.5,0-.62a.71.71,0,0,1,0-.15,9.9,9.9,0,0,0-.07-1,5,5,0,0,0-.12-.63,2.84,2.84,0,0,1-.08-.34c-.3-1.61-.84-3.55-1.32-5.25-.24-.87-.47-1.69-.67-2.47,0,0,0-.16-.08-.4C179.27,125.84,179.65,125,181.26,125ZM114.8,149.59l-.72-.07a8,8,0,0,1-3.62-1l-.7-.37-.69,1.5-1.35-.57,4.93-9.32,3.36.64.23,11.32-1.54-.46Zm-3-5.46,1.11,1.89,1.89-1.37-1.23-1.9Zm1.09,2.65,1.1,1.89,1.9-1.36-1.23-1.91Zm-3.19-.65,1.11,1.89,1.89-1.36-1.22-1.91Zm-5.05,114a22.09,22.09,0,0,0-6-.68,32.51,32.51,0,0,0-10.92,1.81h0a24.73,24.73,0,0,1,1.75-6.07c1.28-2.86,2.81-7,2.81-10.29v-.31h0A90.52,90.52,0,0,0,105,260.11l.16.15-.6-.17a22.09,22.09,0,0,0-6-.68m-9.8-20.64.76,1.7a17.23,17.23,0,0,1-.8,8.15.21.21,0,0,0,.11.27l.09,0a.23.23,0,0,0,.2-.13,15,15,0,0,0,1.26-6h0a7.35,7.35,0,0,1,.31,2.12c0,2.38-1,5.82-2.67,9.68a25.58,25.58,0,0,0-2,7.23c-.73.26-1.49.53-2.31.86-3.74,1.45-7.37,2.68-8.55,1.88-.13-.09-.51-.35-.51-1.46,0-3.23,1.14-5.81,2.24-8.31A62,62,0,0,1,81,247l.41-.64-1.54-.94-.37.71s-2.24,4.12-6.5,4.12a9.35,9.35,0,0,1-4.82-1.11l-2.66-7.51a26.89,26.89,0,0,0,2.86.14c3.24,0,9.36-2,12-7.39.07-.14.18-.41.19-.43s.06-.14.14-.37a13.18,13.18,0,0,0,.47-1.61,33.93,33.93,0,0,0,.89-10v0c.26.93.54,1.85.83,2.76h0c-.07,5.22-.67,9.2-1.72,11.33a.22.22,0,0,0,.1.29.17.17,0,0,0,.1,0,.21.21,0,0,0,.18-.12,25,25,0,0,0,2.38-8.48c.2.56.41,1.12.62,1.67h0c0,4.43-.53,7.71-1.49,9.76a.21.21,0,0,0,.1.28.17.17,0,0,0,.1,0,.24.24,0,0,0,.19-.12,22.42,22.42,0,0,0,2-7.59c.24.57.49,1.15.74,1.72,0,2.7-.13,6.23-1.28,8.82a.22.22,0,0,0,.1.29l.1,0a.22.22,0,0,0,.19-.12,20.18,20.18,0,0,0,1.78-7.08c.26.55.5,1,.77,1.58a19.62,19.62,0,0,1-1.05,8.46.21.21,0,0,0,.11.28l.09,0a.21.21,0,0,0,.19-.13,17.74,17.74,0,0,0,1.54-6.87M77,184c0,1,.07,2.08.11,3.11h0c-1-1.22-4.15-4.94-7.66-5.82a22.19,22.19,0,0,0-7.64-.09,33.74,33.74,0,0,0,8.79-6.85c4.74-5.24,5.47-15.62,5.75-19.53,0-.57.07-1.06.1-1.21a5.24,5.24,0,0,1,.54-1.49Zm.18,4.59a168.21,168.21,0,0,0,2.84,25c-.25-.45-.54-.93-.84-1.37C75.6,206.87,69.09,203.38,66,201.7l-.64-.34c-4.78-2.6-12.29-5.66-17.26-7.69-1.73-.71-3.16-1.29-4-1.65a49.62,49.62,0,0,0,5.46.34c1.54,0,3-.15,4.35-.28s2.65-.26,4-.26a16.74,16.74,0,0,1,4.09.68,17,17,0,0,0,4,.66,15.41,15.41,0,0,0,8.58-3.08c.31-.21.57-.39.77-.5.75-.42,1.83-.94,1.83-1l0,0ZM52,160.3c2.53-2.19,4.29-3.6,6.6-5.35,6.52-5,15.37-11,18.08-12.8l.45.4H77v7.86h-.29c-.31,0-7.6.21-13.94,7.29a27,27,0,0,0-6.09,10.69,26.46,26.46,0,0,1-1.21,3.15,15.34,15.34,0,0,0-.59-7.2,8.62,8.62,0,0,0-2.87-4Zm-8,12.6a9.78,9.78,0,0,1,.58,3c0,1.34-4,3.84-7.75,3.84-.73,0-1.66,0-2.69-.07A36.31,36.31,0,0,1,38,174.3c1.55-1.8,3.8-4.24,5.18-5.71A20,20,0,0,0,44,172.9Zm33.22-37.42a8.17,8.17,0,0,0-.08,1.06,16.75,16.75,0,0,0,.6,4.56,34.8,34.8,0,0,0-4-3.28,24.9,24.9,0,0,0-2.26-1.25c-1.46-.74-3-1.51-3-2.3l0-1.29v-.31a36.55,36.55,0,0,1,.34-4.14c0-.18,0-.34.07-.49l.89,1.08.6-.59a13.52,13.52,0,0,1,1.13-1,15.74,15.74,0,0,1,2.94-1.93,6.88,6.88,0,0,1,3-.83c1.65,0,2,.88,2,1.61,0,0-1.77,6.43-2.07,8C77.35,134.77,77.3,135.14,77.26,135.48Zm-14.19,5.14a.2.2,0,0,0,.19.11.15.15,0,0,0,.09,0,49.29,49.29,0,0,0,6.2-3.46c.38.21.78.41,1.19.62-1.72,1.23-4.18,2.89-6.5,4.29a.23.23,0,0,0-.08.3.21.21,0,0,0,.19.11l.1,0a55.83,55.83,0,0,0,7.11-4.25h0c.39.2.77.41,1.12.63h0c-1.84,1.33-5,3.51-7.37,5.08a.22.22,0,0,0,.11.4.2.2,0,0,0,.11,0,64,64,0,0,0,7.88-5h0c.35.24.65.47,1,.73h0c-1.84,1.33-5.52,4-8,5.71a.22.22,0,0,0-.06.29.22.22,0,0,0,.18.1.2.2,0,0,0,.11,0A72.34,72.34,0,0,0,75,140.66l0,0,.48.42c-3,2-11.5,7.82-17.84,12.64-2.2,1.68-4.54,3.57-6.93,5.64-.43-.27-.8-.49-1.07-.64l-.23-.13a29.84,29.84,0,0,1-2.65-1.82l-.8-.62-.36.95c-.27.71-2.63,7-2.63,9.34v0c-.86.91-4.18,4.47-6.22,6.84a46.62,46.62,0,0,0-4.3,6.16l-.81-.13h0c.6-1.34,1.28-2.8,1.79-3.88a.22.22,0,0,0-.38-.21c-1,1.64-1.82,2.95-2.36,3.9h0a8.27,8.27,0,0,1-1-.29l-.39-.15c.63-1.42,1.37-3,2-4.26a.23.23,0,0,0-.1-.29.21.21,0,0,0-.28.08c-1.1,1.73-1.91,3.1-2.46,4.06a12.06,12.06,0,0,1-1.09-.68h0c.37-.81.79-1.68,1.2-2.54l.87-1.81a.21.21,0,0,0-.09-.28.22.22,0,0,0-.29.08c-1.15,1.8-1.92,3-2.44,3.94h0a8,8,0,0,1-1-1.07h0c.41-.87.88-1.81,1.34-2.75.28-.55.54-1.09.78-1.58a.21.21,0,0,0-.37-.21c-1,1.48-1.78,2.65-2.37,3.65h0a9.25,9.25,0,0,1-.55-1h0c.7-1.34,1.65-3.12,2.48-4.6a.21.21,0,0,0-.07-.29.22.22,0,0,0-.29.05l-.17.24c-.57.75-1.11,1.47-1.59,2.14-.3.43-.58.83-.82,1.22h0c0-.05,0-.1,0-.15a11.25,11.25,0,0,1-.32-1.47h0c.73-1.39,2-3.78,2.56-4.72h0a.21.21,0,0,0-.07-.29.2.2,0,0,0-.29,0c-.76,1-1.57,2.17-2.35,3.41,0-.19,0-.37,0-.56,4.67-12.05,21.15-22,33.16-28.49,4.8-2.58,8.63-4.52,10.51-5.46a1.77,1.77,0,0,0,.15.31h0a52,52,0,0,1-5.26,3.08.23.23,0,0,0-.1.29.24.24,0,0,0,.2.12.11.11,0,0,0,.08,0A39.35,39.35,0,0,0,67.8,136h0a5.13,5.13,0,0,0,1,.79c-1.55,1.07-3.48,2.31-5.66,3.53a.21.21,0,0,0-.08.29m-24.84-31.7a26.66,26.66,0,0,0,17.35,6.65q3.68,0,7.49-.32h0A5.91,5.91,0,0,0,61,119.34v.38l.31.23s.23.17.6.48h-.12a30.93,30.93,0,0,1-3.58.2c-14.41,0-15.71-2.86-17.68-7.2l-.26-.58a43.52,43.52,0,0,0-2.06-4ZM65.94,99.7c-.83,0-1.66,0-2.49,0-4.64,0-10.67-.93-17.93-2.76a17.66,17.66,0,0,1,4.27-5.38c3-2.44,7.42-1.29,8.11-.74a3.8,3.8,0,0,1,.47,1A11.24,11.24,0,0,0,61.79,97,21.86,21.86,0,0,0,66,99.7Zm5,14.58q5.06-.81,10.26-2.14A41.29,41.29,0,0,1,73.44,117l-.07,0c-.38-.43-.73-.85-1.06-1.25A19.78,19.78,0,0,0,71,114.28m13.56,10.79a.26.26,0,0,0,.21.11l.11,0a21.77,21.77,0,0,1-5.21,7.17l-.28.23c.25-1,.53-1.95.79-2.87s.8-3,.8-3a8.08,8.08,0,0,0,.27-1.79c0-1.77-1.91-3.09-3.93-4.48a22.11,22.11,0,0,1-2.87-2.2,40.76,40.76,0,0,0,10.12-7l1.81-.55h0a79.78,79.78,0,0,1-7.84,6.38.27.27,0,0,0-.07.37.28.28,0,0,0,.23.13.22.22,0,0,0,.13,0A55.64,55.64,0,0,0,88,110.82c0,.37,0,.77-.06,1.19h0a83.41,83.41,0,0,1-8.23,6.59.28.28,0,0,0,.31.46,62.87,62.87,0,0,0,7.83-5.68c0,.43-.07.85-.11,1.24-1.85,1.62-4.26,3.61-6.82,5.51a.27.27,0,0,0,.17.49.3.3,0,0,0,.15-.05A72,72,0,0,0,87.55,116c-.07.4-.16.87-.26,1.4-1.62,1.39-3.42,2.89-5.12,4.21a.27.27,0,0,0-.06.37.28.28,0,0,0,.22.12.3.3,0,0,0,.16,0c1.71-1.16,3.22-2.26,4.53-3.28h0c-.1.5-.21,1-.33,1.58-1.13,1-2.26,1.93-3.31,2.78a.27.27,0,0,0,0,.38.28.28,0,0,0,.22.11.33.33,0,0,0,.16,0c.9-.64,1.76-1.27,2.58-1.88-.26.76-.56,1.52-.88,2.26l-.82.71a.27.27,0,0,0,0,.37m-31-92.31c-.37-2.31,2-4.92,7.4-8.15a.2.2,0,0,0,.08-.27.21.21,0,0,0-.26-.11l-1,.41-.33.15-.59.27-.4.21-.46.25-.43.24L57.2,26c-.16.09-.3.19-.45.29l-.29.2-.45.33-.23.18-.44.36a1.29,1.29,0,0,1-.17.16c-.15.13-.29.27-.42.4a1.59,1.59,0,0,1-.13.13l-.4.44a.76.76,0,0,0-.08.11,5.45,5.45,0,0,0-.37.47l-.06.08c-.11.17-.22.34-.32.51l0,.05c-.1.18-.19.36-.27.53l0,0c-.07.16-.13.31-.19.47h0c-.09-.36-.2-.77-.36-1.23h0c.37-2.1,2.74-4.43,7.24-7.18a.2.2,0,0,0,.08-.27.21.21,0,0,0-.26-.1c-.58.23-1.13.49-1.65.75l-.08,0c-.5.26-1,.53-1.39.81l-.12.07c-.42.28-.81.57-1.18.86l-.11.09a12.43,12.43,0,0,0-1,.89l-.09.09c-.3.31-.56.61-.81.92l-.06.08a8.47,8.47,0,0,0-.63.93l0,.06a6.72,6.72,0,0,0-.39.75h0c-.13-.29-.26-.59-.42-.91v0h0c.48-2.24,2.85-4.74,7-7.3a.2.2,0,0,0,.08-.27.21.21,0,0,0-.27-.1c-.32.13-.63.27-.93.41l-.28.15-.58.29-.31.18-.49.28-.32.21c-.14.09-.28.17-.41.27l-.31.22-.36.26c-.11.08-.2.17-.3.25l-.31.25-.29.26-.26.24-.27.28-.22.23c-.09.1-.17.2-.26.29l-.17.21c-.08.11-.17.21-.24.32l-.14.18c-.08.11-.15.22-.22.33l-.1.16c-.08.12-.14.24-.21.35s-.05.09-.07.13a3.14,3.14,0,0,0-.18.37.93.93,0,0,0-.05.1,2.72,2.72,0,0,1-.11.25c-.22-.42-.43-.8-.62-1.14h0c.5-2.18,2.81-4.56,7-7.24a.21.21,0,0,0,.08-.27.2.2,0,0,0-.27-.09c-.58.25-1.13.52-1.65.8l-.07,0c-.5.28-1,.56-1.39.85l-.1.07a12.48,12.48,0,0,0-1.18.88l-.1.08a12.57,12.57,0,0,0-1,.91l-.07.08c-.3.31-.57.62-.81.92l0,.07a8.47,8.47,0,0,0-.63.93.05.05,0,0,1,0,0,8.22,8.22,0,0,0-.42.84h0l-.43-.77h0c.78-2.47,2.93-4.71,7-7.31a.22.22,0,0,0,.07-.28.22.22,0,0,0-.27-.09c-.32.14-.62.29-.92.44L54,16.59l-.78.52-.72.53-.65.54-.32.29a3.31,3.31,0,0,0-.27.26A2.47,2.47,0,0,0,51,19l-.25.27-.25.27-.23.28-.2.25-.22.3-.16.23-.2.3-.12.2-.19.32-.09.17c0,.11-.11.23-.17.34v0c0-.12,0-.24,0-.37,0-2.62,3.23-5,7-7.7a45,45,0,0,0,8.31-7.17c1.49-1.79,2.6-3.31,3.24-4.22.34.47.76,1,1.09,1.42.53.61,1.67,1.76,2.14,2.22a9.41,9.41,0,0,1-.15,2.3,7.46,7.46,0,0,1-2.8,4.1c-1.83,1.2-4,2.31-4,2.32l-.52.28.42,1.67.82-.39A50.2,50.2,0,0,1,74.6,13c2.17-.36,3.77-.55,4.86-.64l0,0-.68,1.46,1,.12a13,13,0,0,1,4.39,1.81c2,1.14,2.49,2.75,2.35,3.79A1.64,1.64,0,0,1,85.36,21l-.28,0c-6.33.72-17.41,2.08-20.44,3.12l-.29.1c-4.08,1.52-9.13,5-10.17,8.07a3.78,3.78,0,0,0-.2,1h0a4.07,4.07,0,0,1-.44-.55M83,7.57a29.92,29.92,0,0,0,.58-6.43A19.54,19.54,0,0,1,89.1,3.2h0C91.84,5,93.18,6.43,93.18,7.69c0,.84-1.36,4.28-5.15,11.41a5.8,5.8,0,0,0-3.11-4.62,17.77,17.77,0,0,0-4-1.77A30.42,30.42,0,0,0,83,7.57Zm95.24,5.14a17.75,17.75,0,0,0-4,1.77,5.8,5.8,0,0,0-3.11,4.62C167.36,12,166,8.53,166,7.69c0-1.26,1.33-2.73,4.08-4.49h0a19.43,19.43,0,0,1,5.53-2.06,29.92,29.92,0,0,0,.58,6.43A31.26,31.26,0,0,0,178.23,12.71ZM137.31,138.24a11,11,0,0,1,2,4.31H128.11c-.63-1.4-1-3.27.51-4.66a3.11,3.11,0,0,1,2.55-1c2.12.24,3.85,2.78,3.87,2.81l.69,1,.59-1.08s.35-.62,1-1.48ZM101.6,117.35l.17-.19m1.25,1.3c-.51.59-1,1.22-1.55,1.89h0c0-.58.09-1.12.1-1.63h0l.81-.94m-.78-.43c0-.12,0-.24,0-.36l.18.18m.61.61c.22.22.43.45.64.68m1.23,1.38h0a48.35,48.35,0,0,0-3.33,4.41h0c.14-.67.25-1.36.35-2,.91-1.19,1.75-2.26,2.4-3Zm-4.73,10.94a.26.26,0,0,0,.13.35.24.24,0,0,0,.12,0A.27.27,0,0,0,100,131a49.24,49.24,0,0,1,5.94-9h0c.18.24.34.49.51.74a31.41,31.41,0,0,0-5.8,9.74,48.25,48.25,0,0,0-2.31,10H90.16A17.83,17.83,0,0,0,92,141.05a22.16,22.16,0,0,0,4.13-4.83c.41-.65.79-1.3,1.18-2l.26-.52.31-.61c.15-.28.29-.57.42-.84a34.7,34.7,0,0,0,2.1-5.81,49.8,49.8,0,0,1,4.39-5.92h0c.2.25.4.5.59.76h0A41.28,41.28,0,0,0,99.52,130.78ZM80.72,146.2h25.51a12.74,12.74,0,0,0,.77,1.09h0l-1.36,2.57,4.19,1.76.65-1.39a9.06,9.06,0,0,0,2.75.7l-.08,1.46,4.64,1.39-.06-2.7h0a22,22,0,0,0,10.95-5l.09.11h49.53v37.17H80.72V146.2H106M169,120a.29.29,0,0,0,.22.11h0a.29.29,0,0,0,.28-.28.28.28,0,0,0-.1-.21c-1.14-1.74-2.43-3.78-3.59-5.67h0c-.35-1.06-.63-2.07-.84-3h0a92.48,92.48,0,0,0,5.74,8,.29.29,0,0,0,.22.11h0a.29.29,0,0,0,.28-.28.25.25,0,0,0-.11-.21c-2.65-3.82-5.4-8.17-6.58-10.27v0c0-.23,0-.45,0-.65l.71.23h0a71.86,71.86,0,0,0,7.24,10,.27.27,0,0,0,.21.09h0a.28.28,0,0,0,.28-.27.3.3,0,0,0-.11-.22c-2.51-3.41-4.87-6.9-6.21-9.15h0l1.24.4h0a69.33,69.33,0,0,0,6.3,8,.25.25,0,0,0,.2.09h0a.27.27,0,0,0,.28-.27.27.27,0,0,0-.12-.22q-3.35-4.34-5.23-7.18h0l1.47.48h0a69,69,0,0,0,5.11,6,.32.32,0,0,0,.2.08h0a.28.28,0,0,0,.16-.5c-1.52-1.86-2.88-3.56-4-5.11h0l1.56.52a13.6,13.6,0,0,0,4.52,4.59c2,1.16,4.57,2.4,6.14,3.16l-.12.12a22.61,22.61,0,0,1-2.9,2.23c-2,1.4-3.93,2.72-3.93,4.49a13.44,13.44,0,0,0,.29,1.78l.12.51c.2.86.49,1.84.78,2.87s.61,2.13.86,3.15c-1.73-1.37-4.94-4.38-9.27-10.46h0a31.52,31.52,0,0,1-3-5.39h0c.56.76,1.14,1.55,1.76,2.37m-69.1,22.46a48.18,48.18,0,0,1,2.21-9.42,29.71,29.71,0,0,1,5.18-8.85l.81,1.59a28.44,28.44,0,0,0-3.4,7.5l-.48,1.9,1.63-1.09a2.82,2.82,0,0,1,2.66-.1,1.77,1.77,0,0,1,.82,1.81c-.19,3.59-3.81,3.53-4.21,3.51l-.83,0,0,.82a12.82,12.82,0,0,0,.39,2.44H99.87m21.06-10.14h0a77.67,77.67,0,0,0-6.78-15.48,44.52,44.52,0,0,0-9-10.37c10.5-2,14.73-3.66,18.47-5.1,1.77-.68,3.44-1.33,5.6-1.94l1.07,5.78c1,5.28,2.24,12.13,3,16.09-.13.15-.42.55-.59.78l-.16.23q-.17.24-.33.51l-.06.1-.11.19c-.09.15-.17.32-.25.48l-.1.2-.08.16a6.76,6.76,0,0,0-.33.89c-.2.64-.32,1.06-.38,1.34A48.28,48.28,0,0,0,120.93,132.37Zm19.78-32.85c.2,6.42-2.87,13.35-4.52,17.07a27.3,27.3,0,0,0-1.07,2.59c-.13.12-.24.28-.41.44l-.14.15-.48.5h0c-.78-4.06-1.92-10.24-2.84-15.2-1.2-6.5-1.2-6.5-1.39-6.63l-.19-.13-.22.06a58.81,58.81,0,0,0-6.21,2.11c-3.82,1.48-8.16,3.15-19.34,5.25l-1.07.2.85.68a44.84,44.84,0,0,1,9.61,10.8,77.1,77.1,0,0,1,6.81,15.64h0l-.29.24h0a110.13,110.13,0,0,0-7.18-15.68h0c-3.43-5.66-9.48-10.11-11.29-11.36l-.17-.13-.21,0a33.89,33.89,0,0,1-8.4.25l-.17,1c13.65,4.22,18.5,14.21,24.15,29h0q-.69.72-1.11,1.2l-6.32-13.28-.77-1.31-.3-.48a38.52,38.52,0,0,0-6.78-7.84l-1.44-1.28h0a54.08,54.08,0,0,0-11.23-7.24h0c.42,0,.88,0,1.37,0,5.74,0,16.28-1.61,29.34-6.61A90.7,90.7,0,0,1,140,95,15.81,15.81,0,0,1,140.71,99.52ZM118.94,134q-.91.81-1.62,1.5h0c-5.26-13.65-9.92-23.24-21.57-28a27,27,0,0,0,5.16-.34c1.46,1,7.54,5.47,10.86,11h0A92.35,92.35,0,0,1,118.94,134Zm12.28-47.19A78.57,78.57,0,0,0,120.93,90l-.15.06c-2.73,1.11-5.11,3.35-7,5.15a22.31,22.31,0,0,1-2.86,2.46,2.6,2.6,0,0,1-.75.35c-10.06,2.7-17.15,4.22-21.15,4.53,1.26-1.07,2.94-2.44,5-4,3.71-3,7.52-5.84,9.4-7.2C105,90,110.49,87.21,118,85.63a62.11,62.11,0,0,1,12.62,1.05c.14.08.49.09.64.16m22.17,1.08a13.32,13.32,0,0,0-1.21-5.37l1.42.23a26.93,26.93,0,0,1,3.07,1.1A5.58,5.58,0,0,1,160,87a10.23,10.23,0,0,1,.73,4.25L153.49,89C153.45,88.67,153.42,88.33,153.39,87.92Zm75.18-6.39c0,1.07-.08,2-.09,2.93,0,1.17,0,2.23.1,3.2h0c-.35.39-.74.8-1.18,1.21,0-.26-.05-.57-.07-.91-.05-.64-.1-1.4-.17-2.22l0-.3c0-.44-.07-.89-.11-1.35l-.12-1.42,0-.2c-.09-1.21-.18-2.19-.28-3a.2.2,0,0,0-.22-.19.21.21,0,0,0-.19.21c0,1.48,0,2.55.05,3.47V83c0,.57.05,1.1.06,1.61s0,.8.05,1.18c.07,1.3.17,2.46.32,3.69h0l-.92.78h0c-.33-1.88-1.09-6.34-1.09-6.34-.14-.83-.32-1.91-.54-2.85a.22.22,0,0,0-.24-.16.21.21,0,0,0-.17.23l.1,1c.08.82.26,2.39.26,2.39.08.55.28,2.31.32,2.66.18,1.45.35,2.78.49,3.78h0c-.32.24-.65.49-1,.72h0c-.06-.36-.12-.75-.17-1-.13-.63-.29-1.42-.5-2.27,0-.06,0-.11,0-.17l0-.12c-.07-.29-.14-.57-.22-.87-.13-.54-.27-1.11-.43-1.67l0-.17c-.23-.86-.5-1.84-.81-2.7a.2.2,0,0,0-.25-.13.21.21,0,0,0-.15.24c.09.42.17.82.25,1.21.14.68.26,1.31.41,1.9l0,.07c.14.6.25,1.16.35,1.7.06.28.11.56.16.82.24,1.18.5,2.58.73,3.68h0l-.92.61h0c-.09-.33-.17-.66-.23-.85-.17-.62-.39-1.39-.67-2.23a1,1,0,0,0-.06-.16l-.23-.67c-.21-.6-.43-1.23-.68-1.87l-.06-.16a24.48,24.48,0,0,0-1.08-2.55.21.21,0,0,0-.27-.1.2.2,0,0,0-.11.26c.36,1.07.67,2,1,2.92l0,.07a17.49,17.49,0,0,1,.53,1.72c.06.23.13.45.19.67l.6,2.08c.09.31.23.83.37,1.32h0c-.34.22-.69.42-1,.61h0c-.08-.21-.16-.42-.22-.56-.25-.61-1.06-2.52-1.06-2.52-.4-.9-2-4.12-2.5-4.83a.2.2,0,0,0-.27-.07.2.2,0,0,0-.09.27c.45.93,3,7.16,3.31,8l0,.12h0l-.08,0-1.06.54h0a.67.67,0,0,1-.06-.12c-.29-.64-.66-1.45-1.14-2.34a1.62,1.62,0,0,0-.1-.18l-.06-.1c-.29-.53-.75-1.33-1.29-2.17l-.1-.15a23.62,23.62,0,0,0-1.61-2.24.21.21,0,0,0-.33.25c.54.84,1.05,1.67,1.56,2.55l0,.06c.45.76.81,1.49,1.13,2.13.49,1,.88,1.89,1.23,2.68h0l-1.21.59c-.36-.66-.83-1.46-1.42-2.35-.47-.7-1-1.39-1.51-2.05a27.76,27.76,0,0,0-2-2.21.2.2,0,0,0-.28,0,.21.21,0,0,0,0,.29c.67.78,1.29,1.58,1.85,2.36s1,1.37,1.37,2.06.91,1.56,1.26,2.24h0l-.8.33a19.44,19.44,0,0,0-4.78-6.1,8.6,8.6,0,0,0-5.51-1.85,8.48,8.48,0,0,0-4.49,1.1,3.67,3.67,0,0,0-.94,1.67,9.7,9.7,0,0,1-3,4.49,25,25,0,0,1-6,3.51l-1.52-.25s0-.24,0-.38a42.46,42.46,0,0,1-.28-5c0-5.34,7.15-7.82,7.23-7.84l.63-.22L196,84l-.79.24s-3.3,1-5.34,1.74a30.16,30.16,0,0,1-9,1.53,12.22,12.22,0,0,1-6.54-2.22l-.28-.17c-.6-.37-1.34-.8-1.94-1.16a19.09,19.09,0,0,0,3-2.28l.21-.19c1.89-1.78,5.07-4.76,9.71-4.76a34.3,34.3,0,0,1,9.55,1.36l1.4.35.7.17.46-1.58-.68-.23a32,32,0,0,1-7.71-4,13.22,13.22,0,0,1-4.29-7.17c-.27-1-.63-3.45-.82-4.8,2.71.36,10.66,1.89,14,7.78,1.64,2.9,3.26,4.08,5.73,5.87,1,.7,2.07,1.5,3.39,2.56a62.92,62.92,0,0,1,6.87,6.48l.59.65,1-1.24-.19-.42A193.27,193.27,0,0,0,204.38,63.2C197.63,52.31,189.16,40.87,188.55,40a3,3,0,0,1-.32-1.83v0h0a90.66,90.66,0,0,0,6.89,9.6.23.23,0,0,0,.17.08.22.22,0,0,0,.13,0,.23.23,0,0,0,0-.3c-1.86-2.75-5.41-8-6.69-10h0a2,2,0,0,1,.53-.22c.24-.07.48-.14.74-.2,1.29,2.09,3.9,6,6.84,9.82a.22.22,0,0,0,.17.09.28.28,0,0,0,.13,0,.22.22,0,0,0,.06-.29c-1.8-2.93-4.76-7.37-6.19-9.5l-.18-.28h0c.46-.1.95-.2,1.45-.29,1.11,1.78,3.76,5.88,6.35,9.45a.21.21,0,0,0,.17.09l.12,0a.21.21,0,0,0,.07-.29c-2-3.46-4.48-7.34-5.85-9.37h0c.47-.08,1-.15,1.46-.21h0c3,4.69,4.8,7.44,5.81,8.95a.21.21,0,0,0,.18.09.23.23,0,0,0,.11,0,.21.21,0,0,0,.08-.28,100.39,100.39,0,0,0-5.28-8.85h0l1.49-.15h0c1.21,1.92,3.6,5.77,5.19,8.36a.23.23,0,0,0,.19.1.19.19,0,0,0,.1,0,.21.21,0,0,0,.09-.28A74.85,74.85,0,0,0,198,35.9h0l.55,0h0a211,211,0,0,1,15.15,24.85,176.06,176.06,0,0,1,8.09,18.15l.25.69,1.56-.52-.12-.65s-.37-1.91-.76-5.37a89.52,89.52,0,0,1-.44-9.22c0-1.61-1.23-3.66-2.92-6.5l-.73-1.21a18.08,18.08,0,0,1-2.88-7.74,24.94,24.94,0,0,1,.28-6.64l1.75.72.58.24a9.64,9.64,0,0,1,5,3.72c1.39,2,3,5.72,2.85,11.53v1h1.76l0-.72c0-.17,0-.37,0-.61a27.41,27.41,0,0,1,2.58-11.75,13.66,13.66,0,0,1,6.63-7.13c.59-.35,1.21-.7,1.79-1.11a32.25,32.25,0,0,0,4.63-4.2,19.58,19.58,0,0,1,.43,6.22c-.44,6.84-2.43,9.28-5.18,12.66l-.51.63c-1.52,1.88-5.25,6.86-5.41,7.07l-.58.78,1.6.65.35-.41c0-.05,3.83-4.41,8.09-4.41a14.61,14.61,0,0,1,7.11,2.12c.72.4,1.5.76,2.13,1l-.45.31a10.19,10.19,0,0,0-1.83,1.73A10.3,10.3,0,0,1,245,64.92a19.08,19.08,0,0,1-5.29,1.19c-2.47.3-4.8.59-6.34,2.73-3.48,4.8-3.43,13.2-3.41,16v.45a1,1,0,0,1,0,.17h0a2.25,2.25,0,0,1-.09.35,5,5,0,0,1-.54,1v0c0-.62,0-1.42,0-2.36s0-2.26,0-3.4,0-2.24,0-3.16a.22.22,0,0,0-.2-.21.19.19,0,0,0-.21.19c-.11,1.37-.2,2.59-.26,3.73M96.87,86.92a7,7,0,0,0,4.91-2.4,5.65,5.65,0,0,1,1.72-.06,5.15,5.15,0,0,1,1.1.34h0a5,5,0,0,1,2.6,2.65c-1.68.64-3.44,1.36-5.35,2.2-1.45.64-2.9,1.3-4.36,2h0c-1-1.24-2.16-3.17-.88-4.68l.26,0M128.82,71.8h0a8.1,8.1,0,0,0-2.66-.41c-2.57,0-5.4,1.08-8.07,2.26a18.35,18.35,0,0,1-3.72,1V48.05A17.69,17.69,0,0,0,122.22,46a7.45,7.45,0,0,1,3.16-1,3.78,3.78,0,0,1,3.44,1.87Zm1.49-24.91A5,5,0,0,1,134,45a9.58,9.58,0,0,1,4.5,1.27A14.45,14.45,0,0,0,144.77,48V74.63a17.63,17.63,0,0,1-3.71-1c-2.67-1.18-5.5-2.26-8.08-2.26a8.05,8.05,0,0,0-2.66.41h0V46.89ZM94.62,31.2c-.37.33-.74.68-1.11,1a31.32,31.32,0,0,0-4.82,6h0l-3.54-2h0a7.94,7.94,0,0,0,5.24-2.49,7.85,7.85,0,0,0,1.84-5.48l0,0,2.39,2.89ZM104,25.36a31.81,31.81,0,0,0-8.27,4.87l0,0-2.17-2.62,0,0a8.29,8.29,0,0,0,6-.7,6.34,6.34,0,0,0,3.36-4L104,25.29l0,.07m0,0,11-2.17h-.68a28.31,28.31,0,0,0-8.9,1.65l0,0L104.16,22a7.88,7.88,0,0,0,6,.9A8.46,8.46,0,0,0,115,19.65v3.54Zm20.14,5.49a30.22,30.22,0,0,0-7.91-3.62h0l1.29-3.65a7.3,7.3,0,0,0,3.15,3.82,7.76,7.76,0,0,0,6,.82l-2.47,2.62Zm6.7,6.76a24.15,24.15,0,0,0-3.7-4.4,20.69,20.69,0,0,0-1.76-1.49l0,0,2.3-2.44a5.83,5.83,0,0,0,1.07,4.47,6.77,6.77,0,0,0,4.73,2.55l-2.63,1.32ZM99,61a7.31,7.31,0,0,0-.37,3.16,6.72,6.72,0,0,0-2-1.3.76.76,0,0,0-.82.16c-.17.18-.74.93-.74,3.23a8,8,0,0,0,1.5,4,7.27,7.27,0,0,0-2.28,1.12.77.77,0,0,0-.18.18,9.76,9.76,0,0,0-1.27-1.22.81.81,0,0,0-.45-.15l-.13,0A7.67,7.67,0,0,1,86.16,68c-2.5-2.41-3.85-6.73-4.12-13.21-.24-5.82-3.19-8-5-8.73a4.43,4.43,0,0,1,2.91-1A6.72,6.72,0,0,1,83,46h0a5.82,5.82,0,0,1,2,5.22.74.74,0,0,0,.53.83.75.75,0,0,0,.9-.41,9.29,9.29,0,0,1,2.1-3,14.08,14.08,0,0,1,1.34-.88,12.59,12.59,0,0,1,.76,3.42,6.64,6.64,0,0,1-1.85,4.72.75.75,0,0,0,.93,1.18,7.89,7.89,0,0,1,3.43-1,6.53,6.53,0,0,1-2.1,4.06A5.93,5.93,0,0,0,88.19,65a3.43,3.43,0,0,0,1,2.52,3,3,0,0,0,2.13.87A3.21,3.21,0,0,0,94.44,65a5.91,5.91,0,0,0-1.79-4.25l0,0A5.55,5.55,0,0,1,96,59.31,4.1,4.1,0,0,1,99,61Zm-6.6-8.22-.38,0h0a9,9,0,0,0,.12-1v0a1.84,1.84,0,0,1,.36.69v0l-.09.18Zm1.65.16a3.48,3.48,0,0,1,3-1.45c2.32,0,3.1,2.21,3.36,3.64v0a6.13,6.13,0,0,0-3.1.42h0a5.35,5.35,0,0,0-1.57-1.8A4.85,4.85,0,0,0,94.08,53ZM96.32,50a5,5,0,0,0-2.74,1.24l0,0A3,3,0,0,0,92.1,50h0a17.16,17.16,0,0,0-.61-2.38h0a3,3,0,0,1,3-.26A3.72,3.72,0,0,1,96.32,50Zm1.08-5.37c.28,1.19.59,2.18.8,2.85l0,.05,0,0-.46.21a3.58,3.58,0,0,0-.48.29h0a5.43,5.43,0,0,0-2-2,2.65,2.65,0,0,0-.5-.26v0a2.89,2.89,0,0,1,1.11-1,1.71,1.71,0,0,1,1.56-.14Zm-.61-3.56c.06.67.16,1.32.27,1.95h0a3.41,3.41,0,0,0-1.91.42,4.43,4.43,0,0,0-1.15.86,4.72,4.72,0,0,0-2.31-2.54v0a3.86,3.86,0,0,1,2.48-1.56,3.42,3.42,0,0,1,2.62.87Zm5.09-5a1.46,1.46,0,0,1-.57.12c-1.1,0-2-1.36-2.32-1.88a.78.78,0,0,0-.48-.39h-.09a3.31,3.31,0,0,1,.55,0,2.62,2.62,0,0,1,2.9,2.19Zm3.78-9a11.8,11.8,0,0,0-2.72.6l0,0-.15-.08,0,0a32.42,32.42,0,0,1,3.43-1.42v.05a2.53,2.53,0,0,1-.51.83ZM109,37.75a2.85,2.85,0,0,1-2.21-.16,3,3,0,0,1-1.42-3,.75.75,0,0,0,0-.26l0-.09a3.08,3.08,0,0,1,2,.4A3.44,3.44,0,0,1,109,37.73Zm1.43-12.65c.44.34,1.28,1.13,1,2a3,3,0,0,1-1.25,1.59l0,0a4.69,4.69,0,0,0-.48-.53,4,4,0,0,0-2.21-1.06v0a3.73,3.73,0,0,0,.38-1.37v-.07c.88-.25,1.74-.45,2.57-.6Zm.56,5.38c1.14.14,2.84.59,3.34,2.08.71,2.13-.21,3.26-.85,3.75l0,0a4.33,4.33,0,0,0-3.62-1.19h0l-.2-.3v0A6.19,6.19,0,0,0,111,31.21a4.41,4.41,0,0,0-.08-.73Zm1.21,11.43a2.44,2.44,0,0,1-1-.81c-.88-1.24.09-3,.1-3a.75.75,0,0,0-.17-1,.74.74,0,0,0-.65-.16h0l-.06-.36h0a2.47,2.47,0,0,1,2.21,1.08,4,4,0,0,1-.41,4.18Zm-3.63-8.18-.4-.3a4.61,4.61,0,0,0-3.13-.65v0A5.28,5.28,0,0,0,105.3,31a3.25,3.25,0,0,0-.86-2.22h0c1.36-.33,3.17-.48,4.14.46a2.72,2.72,0,0,1,.92,2,4.43,4.43,0,0,1-.94,2.49Zm-9.61-1.35h0a3.92,3.92,0,0,0,0-2.55v0c.67-.44,1.34-.86,2-1.24h0c.78.19,2.86.88,2.86,2.46a4.07,4.07,0,0,1-1.26,2.88h0A4.23,4.23,0,0,0,99,32.38h0m0,0-1.87.35a7.45,7.45,0,0,0-2.6,1.7l0,0a4.74,4.74,0,0,0-.92-.06h0c.34-.36.69-.72,1-1.07a30.37,30.37,0,0,1,3-2.6h0a2.4,2.4,0,0,1-.52,2Zm.84,1.3h0A3,3,0,0,0,97,35.93h0a5.51,5.51,0,0,0-1-.86l0,0a5.27,5.27,0,0,1,1.89-1Zm-6.66,6a2.83,2.83,0,0,0-.88-1.53h0c.46-.71,1-1.42,1.52-2.14h0a3.76,3.76,0,0,1,2.87-.19,4.55,4.55,0,0,1,2,2l0,0c0,.33,0,.68,0,1.06l-.06,0A4.88,4.88,0,0,0,94,38.71,4.8,4.8,0,0,0,91.25,40m-1.7-.24a2.5,2.5,0,0,1,.29,1.56v0a4.61,4.61,0,0,0-1.25.22h0c.29-.58.61-1.19,1-1.81Zm12.18,17.68a13.47,13.47,0,0,0-1.92,2.12h0a5.87,5.87,0,0,0-2-1.4v0a5.17,5.17,0,0,0,0-1.16h0a4.39,4.39,0,0,1,2.49-.34,4.23,4.23,0,0,1,1.37.77Zm-10.14-3a3.73,3.73,0,0,1,3.28.55,3.38,3.38,0,0,1,1.49,2.83H96a5.55,5.55,0,0,0-1.76.3l0,0a8.7,8.7,0,0,0,.52-2.77.78.78,0,0,0-.22-.55.66.66,0,0,0-.55-.22,13.34,13.34,0,0,0-2.66.32,4,4,0,0,0,.21-.47Zm34.22-29.78a47,47,0,0,0-9.28-1.41v-4a7.8,7.8,0,0,0,5.08,3.06,7.49,7.49,0,0,0,5.53-1.45l-1.32,3.74ZM87.93,39.55a30.86,30.86,0,0,0-2.72,6.55h0a6.22,6.22,0,0,0-.69-.78l0,0A8,8,0,0,0,85.42,41a7.71,7.71,0,0,0-.87-3.31h0l3.33,1.87ZM90.26,63.1a5.19,5.19,0,0,1,1.23-1.35A4.43,4.43,0,0,1,92.94,65a1.68,1.68,0,0,1-2,1.84h0a1.95,1.95,0,0,0-.62-3.77Zm.37,1.95a.45.45,0,1,1-.44-.44A.45.45,0,0,1,90.63,65.05ZM115.82,35.6a2.84,2.84,0,0,1,2.26,2.68c0,1.9-2.58,3.34-3.9,3.87l-.2.07,0,0h-.22v0a5.38,5.38,0,0,0,.5-4.6v0a4.33,4.33,0,0,0,1.54-2Zm4.08-10.52a4.09,4.09,0,0,1-2,1.69h0a4.28,4.28,0,0,0-1.56-2l0,0c1,.05,2.26.14,3.64.32Zm1.68,5.79a6.1,6.1,0,0,0-3.14-2.69v0a5.36,5.36,0,0,0,2.94-2.72v0c1.13.51,2.75,1.52,2.75,2.82,0,1.69-1.63,2.37-2.55,2.62Zm.37,1.46.27-.08,0,0A3.63,3.63,0,0,1,124,35.22a4.18,4.18,0,0,1-1.87,3.68h0a4.63,4.63,0,0,0-2.64-1.74h0l-.12-.37,0,0a5,5,0,0,0,2.58-4.29v-.15Zm-3.44,3.19a5.29,5.29,0,0,0-2.43-1.4h0a6.13,6.13,0,0,0-.33-2h0a4.56,4.56,0,0,0,2-2.58l0,0c1,.42,2.65,1.35,2.65,2.94a3.54,3.54,0,0,1-1.9,3Zm-5.62-10.76c.7.21,3.63,1.19,3.63,3a3.29,3.29,0,0,1-1.49,3h0a5.43,5.43,0,0,0-3.09-1.67,4.44,4.44,0,0,0,.89-1.53,2.87,2.87,0,0,0-.55-2.76l0,0,.61-.05h0M125,26.31h0c-.09-.13-.2-.26-.3-.38l0,0c.37.09.75.18,1.13.29h0a2.8,2.8,0,0,1-.77.11m5,6.53a4.64,4.64,0,0,1,1.6,3.08,2.63,2.63,0,0,1-.74,2,4,4,0,0,1-2.18.92h-.05a4.92,4.92,0,0,0-1.79-3.13A5,5,0,0,0,130,32.8Zm3.08,3.54c0-.15,0-.3,0-.46a5.77,5.77,0,0,0-1.73-3.83A5.73,5.73,0,0,0,135,30.53h0a4.67,4.67,0,0,1,1,2.64,3.15,3.15,0,0,1-.93,2.55,3.21,3.21,0,0,1-1.92.63Zm.69-6.77c-.49.65-2.18,1-3.5,1.09h0a5.5,5.5,0,0,0-2.2-3.78l0,0a28.44,28.44,0,0,1,5.76,2.71Zm-8.2-1.84a3.25,3.25,0,0,0,.79-.19h0c.71.41,2.39,1.6,2.39,3.5,0,2.45-2.17,3.22-3.36,3.46h0a5,5,0,0,0-1.66-3l0,0a3.82,3.82,0,0,0,1.9-3.3,2.49,2.49,0,0,0,0-.47h0m8.16,12.86,0,0a5.94,5.94,0,0,0-.67-2.75h.06a4.7,4.7,0,0,0,2.94-1,3.76,3.76,0,0,0,1-1.25h0a5,5,0,0,1,.87,2.65A2.71,2.71,0,0,1,135.09,41a2.24,2.24,0,0,1-1.3-.34m5.3-4.44-.07,0a7.55,7.55,0,0,0-1.46-2.32l0,0a6.13,6.13,0,0,0,0-.62,4.91,4.91,0,0,0-.05-.67v0A23,23,0,0,1,141,36.93h0m-13.9,5.83a4.08,4.08,0,0,0,1.61-2.42h.07A5.53,5.53,0,0,0,132,39l0,.06a5,5,0,0,1,.27,1.7c0,1.61-1.93,2.83-3.19,2.83a2.65,2.65,0,0,1-1.92-.77Zm-4.33-.85v0a4.65,4.65,0,0,0-.08-1.59l0,0a5.5,5.5,0,0,0,2.63-3.8h0a3.54,3.54,0,0,1,1.87,3.26c0,1.53-2,2.48-2.78,2.79l0,0a10.42,10.42,0,0,0-1.65-.63Zm-1.47-.34c-.45-.07-.93-.13-1.45-.17a14.05,14.05,0,0,0-1.71,0,4.55,4.55,0,0,0,1.41-2.61h0a2.76,2.76,0,0,1,1.54,1.42,2.87,2.87,0,0,1,.19,1.34Zm1.3,1.9a12.58,12.58,0,0,0-1.63.77,18.09,18.09,0,0,1-3.69,1.27,21.94,21.94,0,0,1-4.06.36,8.41,8.41,0,0,1,1.34-2.26h0l.05,0a12.85,12.85,0,0,1,5.09-.69,13.45,13.45,0,0,1,2.76.5Zm-17.11,9.34a3.82,3.82,0,0,0-1.65-.59,4.93,4.93,0,0,0-2.65.37h0A4.5,4.5,0,0,0,97.84,50v0a3,3,0,0,0-.07-.47h0a3.55,3.55,0,0,1,.64-.42,2.66,2.66,0,0,1,.75-.29h.14a5.83,5.83,0,0,1,6.2,3Zm-.26,1.65-.34.47a9.19,9.19,0,0,1-.91.72l-1.1.85,0,0a5.91,5.91,0,0,0-.8-.61h0a9.08,9.08,0,0,0-.34-1.86h0a3.46,3.46,0,0,1,1.94-.28,2.82,2.82,0,0,1,1.52.73m42.68-7.2-.34-.21h0l1.41-.21H149a5.39,5.39,0,0,0-.53.54Zm-2-1.47c-1.43-6.56-3.18-9-3.18-9l3.17-1.6a7.06,7.06,0,0,0-.27,6.91l.18.3.09.14a8.35,8.35,0,0,0,3,2.84h0l-2.92.44ZM139.9,44.6a6,6,0,0,0,.84-2.6h0a4.6,4.6,0,0,0,2.44.71l.38,0h0a25.25,25.25,0,0,1,.73,3.11,7.56,7.56,0,0,1-1.93-.3c-.3-.09-.67-.18-1-.31C140.61,44.93,139.9,44.6,139.9,44.6Zm2-6.12h0a26.9,26.9,0,0,1,1.2,2.71h0c-2.18-.08-3.35-2.44-3.61-3.06m-5.94,4a4.2,4.2,0,0,0,1.58.29A4.4,4.4,0,0,0,139,40.3h0l.22.29a4.61,4.61,0,0,1-.64,3.34l-.12,0a10.36,10.36,0,0,0-1.39-.56,9.18,9.18,0,0,0-3-.51,5.14,5.14,0,0,0-.9.07h0a3.53,3.53,0,0,0,.4-.74l0,0m5.94-4v0a.41.41,0,0,1,0-.11h0m-34,18.37v6.91a2,2,0,0,0-1.22-.67c-.43,0-1.87,0-2.51,2.54a14.63,14.63,0,0,0,.41,6.83,10.57,10.57,0,0,1,.23,1.12c0,.31,0,.71,0,1.16.24,5.47-.29,10.6-5.72,11.14a2.27,2.27,0,0,1-1.84-.58,2.37,2.37,0,0,1-.8-1.69,1.86,1.86,0,0,1,1.75-1.83,1.21,1.21,0,0,1,.61.19A1.68,1.68,0,0,1,97,82.76c0,.49-.83.77-.83.77a.74.74,0,0,0-.52.88.76.76,0,0,0,.73.59h.13c1.62-.28,4.69-1.71,4.69-5.17,0-3.74-3.26-6.58-5-7.83a2.71,2.71,0,0,1,1-.32,2.59,2.59,0,0,1,.56.06.77.77,0,0,0,1,.06.74.74,0,0,0,.08-1.05c-.82-1-2.22-3-2.22-4.49a7.43,7.43,0,0,1,.15-1.66,9.27,9.27,0,0,1,2.73,3.2.76.76,0,0,0,1,.35.74.74,0,0,0,.38-1s-1.61-3.9-.17-6.25a16,16,0,0,1,4.14-4.07Zm5.94-9.33-.26.17M105.5,78.35a8.63,8.63,0,0,1-1.31-3.81,23.26,23.26,0,0,1,1.06-4.83c.08-.3.17-.59.25-.88Zm25.29-.06-2.49.11v-.85s0-2.89,1.11-2.89h.23c1.09,0,1.12,2.86,1.12,2.89l0,.74m19.43-30.48.42-.35L151,48Zm-4.39,167.64,15.33,0,5.7,17.25-14.74,10.79-12.52-9,4.77,14.68-14.79,10.74L114.8,249.17l4.77-14.67L107,243.55,92.26,232.76l5.7-17.3h15.42l-12.48-9.07L106.56,189h18.28l4.74,14.67L134.35,189l18.27,0,5.66,17.31Zm-3.22,1-13-9.45-13,9.45,5,15.32h16.1Zm-3.55,15.78,13.06,9.42,13-9.51-5-15.18-16,0Zm13,8-4.85-3.5-6.37-4.59-.44-.32.16-.52,3.21-10,1-3.18h.55l13.3,0h.54l.17.52c.55,1.65,2.35,7.12,3.44,10.46l.89,2.69-.45.32-6.42,4.7Zm-9.9-9,5.93,4.27,4,2.87L156,235.6l6-4.38-.54-1.65c-1-3-2.59-7.87-3.27-9.95l-12.21,0-.69,2.15C144.26,224.87,142.83,229.31,142.2,231.29ZM116.56,248.6l13,9.47,13-9.46-5-15.31h-16.1Zm13,8.08-.44-.32c-.9-.67-3.14-2.29-5.38-3.92l-5.38-3.92-.44-.32,4.45-13.67h14.39l4.44,13.68-1.66,1.2c-2.72,2-8,5.83-9.53,6.94Zm-9.88-9.05c1.07.79,3,2.19,4.94,3.6l4.94,3.59,9.1-6.62.78-.57L135.69,236H123.48Zm-17-41.82,13,9.46,13-9.46-4.95-15.3h-16.1Zm13,8.07-.44-.32-10.75-7.82-.44-.32.17-.52c.68-2.13,3.42-10.53,4.11-12.65l.17-.52h14.39l.17.52,4.1,12.64.17.52-2.62,1.91-8.58,6.23Zm-9.87-9,9.87,7.19,8.15-5.92,1.74-1.26-3.77-11.61H109.59ZM94,232.2l13,9.49,13.09-9.43-5-15.31H99Zm13,8.1-.44-.32-10.73-7.85-.44-.32,4.47-13.67h.89l13,0h.54l.17.52c.7,2.14,3.4,10.54,4.07,12.67l.17.52-.44.31-8.2,5.93Zm-9.85-9.06,9.86,7.2,2.13-1.54,7.76-5.6c-.8-2.53-2.92-9.1-3.74-11.63l-12.21,0Zm33.29-25.43,13,9.48,13-9.48-5-15.24-16.09,0Zm13,8.08-.44-.32-10.76-7.82-.44-.32.17-.52c.46-1.42,1.83-5.64,2.9-8.92l1.39-4.25H150.7l.17.52c.69,2.13,3.4,10.52,4.1,12.65l.17.52-.45.32-10.76,7.81Zm-9.88-9,9.88,7.18,9.88-7.16c-.82-2.54-3-9.09-3.76-11.62H137.4l-1.05,3.2ZM133.14,88c3,1.67,5,3.27,6.21,5.49a92.61,92.61,0,0,0-20.59,4.6c-17.6,6.75-29.06,6.87-31.84,6.31l.31-.3h.31c3.76,0,11.48-1.56,23-4.64a4.06,4.06,0,0,0,1.17-.54,24.28,24.28,0,0,0,3.08-2.62c1.92-1.81,4.1-3.85,6.53-4.85l.12,0A71.74,71.74,0,0,1,133.1,88ZM131.08,90,130,92l2.07,1.08L133.15,91Zm-5.3,1.65-1.09,2.07,2.07,1.09,1.09-2.07Zm-5.31,1.66-1.08,2.06,2.07,1.09,1.09-2.07ZM108.19,78.71A28.62,28.62,0,0,0,118,77.64c5.62-1.83,8-1.39,8-1.39v1.39c-1.64-.29-5.27.82-9,1.45a75.86,75.86,0,0,1-8.82.78h-1.74v-30h1.74V78.71ZM151,78.58V49.86h1.74v30H151a76,76,0,0,1-8.83-.78c-3.72-.63-7.35-1.74-9-1.45V76.25s2.35-.44,8,1.39A28.69,28.69,0,0,0,151,78.71Zm-38.11,98c.29-.09.46,0,.49.15s-.28,3.9-.32,4.36-.16.4-.34.4H84.38c-.1,0-.17,0-.13-.1s.5-2.58.54-2.67.09-.12.26-.12c0,0,.47,0,1.27,0v-.81h1.62v-.85c-1.5-.55-1.72-.82-1.72-3.39a7.9,7.9,0,0,0,2.46,1.25v3h1.7l4.12-15,1.41-5.31h0a13.25,13.25,0,0,0,4.25-2.83,8.86,8.86,0,0,0,1.62-4.38A10.28,10.28,0,0,1,103,152.8v-3.41h-1V148h1.78v3.19l8.86,21.73.65,1.57h0l-4,2.77a35.46,35.46,0,0,0,3.7-.68m-9.16-12,8.15,8.53-8.15-20Zm0,13.33,1.28-.13a14.32,14.32,0,0,0,.83-5.11,25.39,25.39,0,0,0-.7-5.58l-1.41-1.39Zm-7.06-20.13v0a10.24,10.24,0,0,0,3.07,2.86,21.15,21.15,0,0,0,3.26,1.66v-4.17a5.12,5.12,0,0,1-1.09,1.85l-5.24-2.25M90.91,178.6h1.94c1.12-1.66,5.27-8.15,3.46-19.66Zm21.81-1.29A129.21,129.21,0,0,1,93,179.1c-2.56.06-5.21,0-7.77,0l-.16.72c2.54,0,5.35.07,7.91,0A122.76,122.76,0,0,0,112.7,178Zm33.61-.75a35.46,35.46,0,0,0,3.7.68L146,174.47h0l.65-1.57,8.86-21.73V148h1.78v1.41h-1.05v3.41a10.73,10.73,0,0,1,1.16-2.54,8.86,8.86,0,0,0,1.62,4.38,13.25,13.25,0,0,0,4.25,2.83h0l1.41,5.31,4.12,15h1.7v-3a7.9,7.9,0,0,0,2.46-1.25c0,2.57-.22,2.84-1.72,3.39v.85h1.62v.81c.8,0,1.27,0,1.27,0,.17,0,.22,0,.26.12s.5,2.59.54,2.67,0,.11-.13.1H146.51c-.19,0-.32-.09-.35-.4s-.34-4.18-.32-4.36.2-.24.49-.15m9.16-23.47-8.15,20,8.15-8.53Zm0,12.6-1.41,1.39a25.39,25.39,0,0,0-.7,5.58,14.32,14.32,0,0,0,.83,5.11l1.28.13Zm7.06-7.92L157.31,160a5.12,5.12,0,0,1-1.09-1.85v4.17a21.15,21.15,0,0,0,3.26-1.66,10.24,10.24,0,0,0,3.07-2.86v0m.31,1.17c-1.81,11.51,2.34,18,3.46,19.66h1.94ZM146.47,178a122.76,122.76,0,0,0,19.72,1.79c2.56.06,5.37,0,7.91,0l-.16-.72c-2.56,0-5.2.06-7.77,0a129.21,129.21,0,0,1-19.72-1.79ZM87.58,43.88a3.3,3.3,0,0,1,3.36-.78,3.6,3.6,0,0,1,1.87,2.44v0a5.44,5.44,0,0,0-1.9.63h0a.62.62,0,0,0-.25-.17.75.75,0,0,0-.57,0,11.84,11.84,0,0,0-2.39,1.43,6.67,6.67,0,0,0-1.28,1.36,5.15,5.15,0,0,0-.16-.62h0a24.9,24.9,0,0,1,1.3-4.28Z" transform="translate(2.22 0.56)"/></g></svg>